<?xml version="1.0" encoding="UTF-8"?>
<svg version="1.1" xmlns="http://www.w3.org/2000/svg" width="800" height="600">
<path d="M0 0 C-0.33 2.31 -0.66 4.62 -1 7 C0.7015625 6.7215625 0.7015625 6.7215625 2.4375 6.4375 C4.2009375 6.2209375 4.2009375 6.2209375 6 6 C6.33 6.33 6.66 6.66 7 7 C6.78037849 14.35732045 6.02025743 21.71244691 5 29 C3.02 29.495 3.02 29.495 1 30 C0.01 27.03 -0.98 24.06 -2 21 C-3.65 21.33 -5.3 21.66 -7 22 C-7 20.68 -7 19.36 -7 18 C-15.25 17.67 -23.5 17.34 -32 17 C-32 26.57 -32 36.14 -32 46 C-28.4525 45.896875 -24.905 45.79375 -21.25 45.6875 C-20.13786133 45.66260498 -19.02572266 45.63770996 -17.87988281 45.61206055 C-16.99655273 45.57894775 -16.11322266 45.54583496 -15.203125 45.51171875 C-14.30239258 45.48553467 -13.40166016 45.45935059 -12.47363281 45.43237305 C-9.59016778 44.9283643 -8.29929499 43.73532266 -6 42 C-5.01 42.33 -4.02 42.66 -3 43 C-3.33 46.3 -3.66 49.6 -4 53 C-3.236875 52.505 -2.47375 52.01 -1.6875 51.5 C1 50 1 50 4 50 C4.12867289 58.06350113 3.79681084 65.97497656 3 74 C1.68 74.33 0.36 74.66 -1 75 C-1.99 72.03 -2.98 69.06 -4 66 C-6.475 66.495 -6.475 66.495 -9 67 C-9 65.68 -9 64.36 -9 63 C-16.59 63 -24.18 63 -32 63 C-32 75.21 -32 87.42 -32 100 C-27.2665625 99.8453125 -27.2665625 99.8453125 -22.4375 99.6875 C-21.4570874 99.66260498 -20.4766748 99.63770996 -19.46655273 99.61206055 C-13.96421611 99.38277328 -9.84574865 98.68144194 -5 96 C-2.95424197 92.79497909 -1.71715042 89.72918219 -1 86 C0.32 86 1.64 86 3 86 C3 91.61 3 97.22 3 103 C4.32 99.7 5.64 96.4 7 93 C7.99 93 8.98 93 10 93 C11.00652823 97.66143926 10.88877779 101.48036201 10.1875 106.1875 C9.93033203 108.00314453 9.93033203 108.00314453 9.66796875 109.85546875 C9 113 9 113 7 116 C4.30162368 116.30766518 1.8308722 116.4198101 -0.87109375 116.40405273 C-1.68437637 116.41091599 -2.497659 116.41777924 -3.33558655 116.42485046 C-6.03639999 116.44321524 -8.73663721 116.439264 -11.4375 116.43359375 C-13.31640818 116.43815419 -15.19531468 116.44345936 -17.07421875 116.44947815 C-21.02204131 116.45843065 -24.96966187 116.45596572 -28.91748047 116.44604492 C-33.95673315 116.43461116 -38.99527926 116.45466936 -44.03443909 116.48396206 C-47.92088199 116.50239629 -51.80715833 116.50201626 -55.69363403 116.49632454 C-57.54982487 116.49617189 -59.4060274 116.50216928 -61.26217651 116.51461601 C-83.92404088 116.64504657 -83.92404088 116.64504657 -92.8125 108.0625 C-93.49957031 107.41410156 -94.18664062 106.76570313 -94.89453125 106.09765625 C-95.93673828 105.05931641 -95.93673828 105.05931641 -97 104 C-97.79277344 103.2265625 -98.58554688 102.453125 -99.40234375 101.65625 C-102.31225719 98.68069941 -105.042372 95.59610602 -107.75 92.4375 C-108.27803223 91.83268799 -108.80606445 91.22787598 -109.35009766 90.60473633 C-111.88337877 87.66331975 -114.23675366 84.75233616 -116.2890625 81.453125 C-118.56874481 77.69339284 -118.56874481 77.69339284 -123 73 C-129.93 72.505 -129.93 72.505 -137 72 C-136.67 82.56 -136.34 93.12 -136 104 C-134.02 104 -132.04 104 -130 104 C-129.01 104.495 -129.01 104.495 -128 105 C-128.495 106.98 -128.495 106.98 -129 109 C-131.475 109.495 -131.475 109.495 -134 110 C-131.43106162 111.28446919 -129.23423663 111.32977144 -126.375 111.5625 C-124.87066406 111.68818359 -124.87066406 111.68818359 -123.3359375 111.81640625 C-122.56507813 111.87699219 -121.79421875 111.93757813 -121 112 C-121 113.32 -121 114.64 -121 116 C-137.17 116 -153.34 116 -170 116 C-170 114.68 -170 113.36 -170 112 C-169.36191406 111.93941406 -168.72382813 111.87882812 -168.06640625 111.81640625 C-166.82697266 111.69072266 -166.82697266 111.69072266 -165.5625 111.5625 C-164.73878906 111.48128906 -163.91507813 111.40007812 -163.06640625 111.31640625 C-161.01337975 111.21069185 -161.01337975 111.21069185 -160 110 C-165.61 109.67 -171.22 109.34 -177 109 C-177.33 108.01 -177.66 107.02 -178 106 C-175.33865205 103.33865205 -173.50292329 103.68577999 -169.875 103.5390625 C-167.88075168 103.18017126 -167.88075168 103.18017126 -166.92163086 101.43823242 C-165.67283667 98.13446883 -165.52376709 94.94048658 -165.37890625 91.44921875 C-165.32229576 90.2380262 -165.32229576 90.2380262 -165.26454163 89.00236511 C-164.7091948 75.07263182 -164.89099427 61.11121493 -164.93133545 47.17315674 C-164.94171913 43.19682352 -164.94616471 39.22048361 -164.95117188 35.24414062 C-164.9617726 27.49607591 -164.97875136 19.74804363 -165 12 C-167.31 12 -169.62 12 -172 12 C-172 10.68 -172 9.36 -172 8 C-170.35 7.67 -168.7 7.34 -167 7 C-171.29 6.01 -175.58 5.02 -180 4 C-179.67 2.68 -179.34 1.36 -179 0 C-171.6900535 -0.05111648 -164.38015387 -0.08590678 -157.07006836 -0.10986328 C-154.58828 -0.11986074 -152.10650324 -0.13346314 -149.62475586 -0.15087891 C-146.03756836 -0.17540422 -142.45053791 -0.18654601 -138.86328125 -0.1953125 C-137.22496086 -0.21079636 -137.22496086 -0.21079636 -135.55354309 -0.22659302 C-120.40436221 -0.22875171 -107.79215793 1.65872196 -96.5625 12.3125 C-95.2940625 13.6428125 -95.2940625 13.6428125 -94 15 C-93.49082031 15.51433594 -92.98164063 16.02867187 -92.45703125 16.55859375 C-87.70720826 21.63679957 -85.20994811 26.65471038 -84.87109375 33.66796875 C-85.42768991 45.62635298 -91.66308449 53.86294205 -100 62 C-101.64798921 63.35635067 -103.30979327 64.69663636 -105 66 C-104.28714844 66.7734375 -103.57429688 67.546875 -102.83984375 68.34375 C-94.14768322 77.79042779 -94.14768322 77.79042779 -90.375 82.125 C-89.83359375 82.74375 -89.2921875 83.3625 -88.734375 84 C-87.44194096 85.49037439 -86.1627711 86.99227129 -84.890625 88.5 C-79.03912695 95.27966671 -73.17384743 101.57260066 -64 103 C-62.48712746 97.07969711 -61.69910581 91.55460423 -61.68115234 85.45092773 C-61.67110672 84.64982071 -61.6610611 83.84871368 -61.65071106 83.02333069 C-61.6201453 80.41009148 -61.60291893 77.7969534 -61.5859375 75.18359375 C-61.56720437 73.35798793 -61.54762939 71.53239058 -61.5272522 69.70680237 C-61.47615145 64.92789727 -61.43640834 60.14896417 -61.39910889 55.36993408 C-61.35893019 50.48288166 -61.30790142 45.5959435 -61.2578125 40.70898438 C-61.16131473 31.13940345 -61.0768271 21.56975766 -61 12 C-63.31 12 -65.62 12 -68 12 C-68.495 10.02 -68.495 10.02 -69 8 C-66.525 7.505 -66.525 7.505 -64 7 C-68.29 6.01 -72.58 5.02 -77 4 C-77 3.01 -77 2.02 -77 1 C-74.10578011 -0.44710994 -71.55241524 -0.17297762 -68.31884766 -0.22119141 C-67.28929207 -0.23845024 -67.28929207 -0.23845024 -66.23893738 -0.25605774 C-63.96402489 -0.29281666 -61.68908446 -0.32242375 -59.4140625 -0.3515625 C-57.83466192 -0.37467658 -56.25526536 -0.3980669 -54.6758728 -0.42172241 C-51.36207591 -0.47021182 -48.04825416 -0.5151337 -44.734375 -0.55761719 C-40.48834563 -0.61236469 -36.24251097 -0.67621505 -31.9966526 -0.74279213 C-28.73333562 -0.79290272 -25.46996402 -0.83801296 -22.20655441 -0.88163376 C-20.64124682 -0.90318838 -19.07596031 -0.926334 -17.51070023 -0.9510994 C-15.3204796 -0.98503183 -13.13027535 -1.01219391 -10.93994141 -1.03759766 C-9.69354889 -1.05456696 -8.44715637 -1.07153625 -7.16299438 -1.08901978 C-4.54896432 -1.01545013 -2.47364412 -0.78595785 0 0 Z M-137 17 C-137.08861992 19.8116338 -137.11522355 22.59858255 -137.09765625 25.41015625 C-137.0962413 26.25219101 -137.09482635 27.09422577 -137.09336853 27.96177673 C-137.08775263 30.66205335 -137.07519748 33.36224828 -137.0625 36.0625 C-137.05748705 37.88867068 -137.05292379 39.71484266 -137.04882812 41.54101562 C-137.03777804 46.02737542 -137.02050279 50.51367384 -137 55 C-134.75430225 55.06601121 -132.50804512 55.11318115 -130.26171875 55.15234375 C-129.01092529 55.18062256 -127.76013184 55.20890137 -126.47143555 55.23803711 C-122.22571996 54.94690745 -120.11356143 53.97526872 -117.265625 50.8828125 C-111.99058009 43.03536914 -111.94915269 33.60385419 -113.3984375 24.49609375 C-114.53577812 20.48586027 -115.84564552 19.08980624 -119.4375 17 C-123.58946641 15.79159187 -133.71634978 13.71634978 -137 17 Z M-62 109 C-59.18490007 111.2773501 -59.18490007 111.2773501 -56 111 C-56 110.34 -56 109.68 -56 109 C-57.98 109 -59.96 109 -62 109 Z " fill="#CF4136" transform="translate(313,324)"/>
<path d="M0 0 C0.74870361 0.12213867 1.49740723 0.24427734 2.26879883 0.37011719 C7.35831089 1.29581089 7.35831089 1.29581089 9.625 3.5625 C9.625 4.8825 9.625 6.2025 9.625 7.5625 C11.935 8.5525 14.245 9.5425 16.625 10.5625 C16.51532902 14.83387254 16.3846501 19.10434766 16.25 23.375 C16.2190625 24.58994141 16.188125 25.80488281 16.15625 27.05664062 C16.11757813 28.22001953 16.07890625 29.38339844 16.0390625 30.58203125 C15.99193115 32.19235229 15.99193115 32.19235229 15.94384766 33.83520508 C15.625 36.5625 15.625 36.5625 13.625 39.5625 C11.6875 38.9375 11.6875 38.9375 9.625 37.5625 C8.875 34.4375 8.875 34.4375 8.625 31.5625 C7.820625 31.583125 7.01625 31.60375 6.1875 31.625 C3.625 31.5625 3.625 31.5625 2.625 30.5625 C2.23045777 28.71650312 1.88323134 26.86024178 1.5625 25 C1.29759766 23.48212891 1.29759766 23.48212891 1.02734375 21.93359375 C0.89457031 21.15113281 0.76179688 20.36867188 0.625 19.5625 C-0.09816406 19.42972656 -0.82132812 19.29695313 -1.56640625 19.16015625 C-4.375 18.5625 -4.375 18.5625 -6.71484375 17.80859375 C-19.98924891 13.67656087 -37.824033 13.00176725 -50.375 19.5625 C-59.76975093 24.99987297 -65.23805627 33.29906361 -68.375 43.5625 C-71.46876563 58.02069805 -70.25865993 73.63715358 -62.75 86.5 C-56.63384086 94.86948093 -45.43667145 99.34758878 -35.46875 101.0625 C-24.63429076 102.20296939 -13.02047984 102.19806126 -3.375 96.5625 C1.17927844 92.30523972 3.35812633 87.26134443 5.625 81.5625 C7.605 82.0575 7.605 82.0575 9.625 82.5625 C9.295 87.8425 8.965 93.1225 8.625 98.5625 C9.945 95.5925 11.265 92.6225 12.625 89.5625 C13.945 89.5625 15.265 89.5625 16.625 89.5625 C17.80332105 93.09746316 17.39602654 94.98335724 16.75 98.625 C16.47542969 100.22021484 16.47542969 100.22021484 16.1953125 101.84765625 C15.625 104.5625 15.625 104.5625 14.625 106.5625 C19.575 105.5725 19.575 105.5725 24.625 104.5625 C27.05194309 95.01652386 26.97448593 85.65077067 27.0390625 75.8671875 C27.05780069 74.06543111 27.07737602 72.26368324 27.0977478 70.46194458 C27.14879519 65.75045836 27.18856646 61.03894378 27.22589111 56.32733154 C27.26610372 51.50721376 27.31711682 46.68721117 27.3671875 41.8671875 C27.46362188 32.43237291 27.5481293 22.99749286 27.625 13.5625 C25.645 13.5625 23.665 13.5625 21.625 13.5625 C21.625 12.2425 21.625 10.9225 21.625 9.5625 C22.945 9.5625 24.265 9.5625 25.625 9.5625 C25.625 8.9025 25.625 8.2425 25.625 7.5625 C21.665 6.9025 17.705 6.2425 13.625 5.5625 C13.625 4.5725 13.625 3.5825 13.625 2.5625 C15.9770006 1.3864997 17.36234401 1.44165459 19.98291016 1.44897461 C21.33408432 1.44908791 21.33408432 1.44908791 22.71255493 1.44920349 C23.68655243 1.45436478 24.66054993 1.45952606 25.6640625 1.46484375 C26.66005463 1.4662587 27.65604675 1.46767365 28.68222046 1.46913147 C31.87151053 1.47474064 35.06073106 1.4872947 38.25 1.5 C40.40885315 1.50501382 42.56770741 1.50957693 44.7265625 1.51367188 C50.0260655 1.52471305 55.32552778 1.54146012 60.625 1.5625 C60.955 2.8825 61.285 4.2025 61.625 5.5625 C60.91472656 5.69527344 60.20445312 5.82804687 59.47265625 5.96484375 C58.09400391 6.22974609 58.09400391 6.22974609 56.6875 6.5 C55.77097656 6.67402344 54.85445312 6.84804688 53.91015625 7.02734375 C51.67210156 7.33964988 51.67210156 7.33964988 50.625 8.5625 C56.565 8.8925 62.505 9.2225 68.625 9.5625 C68.955 10.2225 69.285 10.8825 69.625 11.5625 C69.295 12.2225 68.965 12.8825 68.625 13.5625 C66.08463361 14.08670259 63.54683121 14.3922041 60.97265625 14.70703125 C58.46381506 15.33147058 58.46381506 15.33147058 57.49246216 17.59281921 C56.38056321 21.39930796 56.36159338 25.0051321 56.39794922 28.93286133 C56.39765717 29.76264496 56.39736511 30.59242859 56.39706421 31.44735718 C56.39845339 34.17985629 56.41399517 36.91207999 56.4296875 39.64453125 C56.43341909 41.54310456 56.43626538 43.44167981 56.43826294 45.34025574 C56.44588786 50.32975612 56.46552658 55.3191395 56.4876709 60.30859375 C56.5081539 65.40297869 56.51726991 70.4973826 56.52734375 75.59179688 C56.54877352 85.58208257 56.58289572 95.57228154 56.625 105.5625 C57.73875 105.541875 58.8525 105.52125 60 105.5 C63.625 105.5625 63.625 105.5625 65.625 106.5625 C65.295 107.8825 64.965 109.2025 64.625 110.5625 C61.655 111.0575 61.655 111.0575 58.625 111.5625 C61.63278521 112.56509507 64.16320647 112.86564642 67.3125 113.125 C68.80330078 113.25068359 68.80330078 113.25068359 70.32421875 113.37890625 C71.08347656 113.43949219 71.84273437 113.50007813 72.625 113.5625 C72.625 114.8825 72.625 116.2025 72.625 117.5625 C55.795 117.5625 38.965 117.5625 21.625 117.5625 C21.625 116.2425 21.625 114.9225 21.625 113.5625 C25.255 113.2325 28.885 112.9025 32.625 112.5625 C32.625 111.9025 32.625 111.2425 32.625 110.5625 C31.40941406 110.57410156 30.19382812 110.58570313 28.94140625 110.59765625 C27.35677236 110.60703278 25.77213682 110.61613313 24.1875 110.625 C23.38505859 110.63337891 22.58261719 110.64175781 21.75585938 110.65039062 C19.71204779 110.6590143 17.66816098 110.6147815 15.625 110.5625 C15.295 110.2325 14.965 109.9025 14.625 109.5625 C14.295 110.490625 13.965 111.41875 13.625 112.375 C10.97430209 116.5995498 8.35420357 117.45954816 3.625 118.5625 C-3.33452426 119.70239906 -10.20302302 119.78397694 -17.2331543 119.80273438 C-19.40778938 119.81236838 -21.58144809 119.84341885 -23.75585938 119.875 C-42.77993228 120.01952055 -62.52218788 115.47373359 -76.8828125 102.25390625 C-78.4253814 100.70370087 -79.94996408 99.13532165 -81.453125 97.546875 C-83.38286228 95.44531583 -83.38286228 95.44531583 -86 93.625 C-92.68093415 87.82313614 -96.69185974 79.8681 -99.375 71.5625 C-99.60058594 70.8921875 -99.82617188 70.221875 -100.05859375 69.53125 C-103.77568333 56.20099772 -101.96593713 41.07513343 -96.01953125 28.75390625 C-87.62881713 13.9745519 -75.40781422 5.47234427 -59.25 0.625 C-40.24047577 -4.220565 -19.23557915 -3.14903932 0 0 Z " fill="#CF4036" transform="translate(419.375,322.4375)"/>
<path d="M0 0 C1.34149109 -0.00472824 1.34149109 -0.00472824 2.71008301 -0.009552 C3.6778064 -0.00752777 4.64552979 -0.00550354 5.64257812 -0.00341797 C6.6338269 -0.00437469 7.62507568 -0.00533142 8.6463623 -0.00631714 C10.74454817 -0.00699839 12.84273614 -0.0051479 14.94091797 -0.00097656 C18.16052973 0.00437244 21.38000198 -0.00092341 24.59960938 -0.00732422 C26.63476593 -0.00666343 28.66992241 -0.00538225 30.70507812 -0.00341797 C32.15666321 -0.00645432 32.15666321 -0.00645432 33.63757324 -0.009552 C34.53190063 -0.00639984 35.42622803 -0.00324768 36.34765625 0 C37.13660278 0.00079559 37.92554932 0.00159119 38.73840332 0.00241089 C40.67382812 0.12939453 40.67382812 0.12939453 42.67382812 1.12939453 C42.34382813 2.44939453 42.01382813 3.76939453 41.67382812 5.12939453 C38.37382812 5.78939453 35.07382813 6.44939453 31.67382812 7.12939453 C37.61382812 7.45939453 43.55382812 7.78939453 49.67382812 8.12939453 C49.67382812 9.44939453 49.67382812 10.76939453 49.67382812 12.12939453 C48.97515625 12.21576172 48.27648437 12.30212891 47.55664062 12.39111328 C46.19152344 12.601875 46.19152344 12.601875 44.79882812 12.81689453 C43.44144531 13.00832031 43.44144531 13.00832031 42.05664062 13.20361328 C39.49540444 13.89807581 39.49540444 13.89807581 38.55078125 16.27392578 C37.55088709 19.52970587 37.3530221 22.33881455 37.25976562 25.74267578 C37.22415527 26.86714111 37.18854492 27.99160645 37.15185547 29.15014648 C37.11785645 30.56642334 37.08385742 31.9827002 37.04882812 33.44189453 C36.86320312 40.21720703 36.86320312 40.21720703 36.67382812 47.12939453 C53.50382812 47.12939453 70.33382812 47.12939453 87.67382812 47.12939453 C87.67382812 35.57939453 87.67382812 24.02939453 87.67382812 12.12939453 C85.03382813 12.12939453 82.39382812 12.12939453 79.67382812 12.12939453 C80.00382812 10.80939453 80.33382812 9.48939453 80.67382812 8.12939453 C83.14882812 7.63439453 83.14882812 7.63439453 85.67382812 7.12939453 C83.2399506 5.91245577 81.25543967 5.80979557 78.54882812 5.56689453 C77.63875 5.48310547 76.72867188 5.39931641 75.79101562 5.31298828 C75.09234375 5.25240234 74.39367187 5.19181641 73.67382812 5.12939453 C73.17882812 3.14939453 73.17882812 3.14939453 72.67382812 1.12939453 C75.01427191 -0.04082736 76.39288527 0.00262908 79 0 C79.89432739 -0.00315216 80.78865479 -0.00630432 81.71008301 -0.009552 C82.6778064 -0.00752777 83.64552979 -0.00550354 84.64257812 -0.00341797 C85.6338269 -0.00437469 86.62507568 -0.00533142 87.6463623 -0.00631714 C89.74454817 -0.00699839 91.84273614 -0.0051479 93.94091797 -0.00097656 C97.16052973 0.00437244 100.38000198 -0.00092341 103.59960938 -0.00732422 C105.63476593 -0.00666343 107.66992241 -0.00538225 109.70507812 -0.00341797 C111.15666321 -0.00645432 111.15666321 -0.00645432 112.63757324 -0.009552 C113.53190063 -0.00639984 114.42622803 -0.00324768 115.34765625 0 C116.13660278 0.00079559 116.92554932 0.00159119 117.73840332 0.00241089 C119.67382812 0.12939453 119.67382812 0.12939453 121.67382812 1.12939453 C121.34382813 2.44939453 121.01382813 3.76939453 120.67382812 5.12939453 C117.37382812 5.78939453 114.07382813 6.44939453 110.67382812 7.12939453 C116.61382812 7.45939453 122.55382812 7.78939453 128.67382812 8.12939453 C128.67382812 9.44939453 128.67382812 10.76939453 128.67382812 12.12939453 C127.96355469 12.26216797 127.25328125 12.39494141 126.52148438 12.53173828 C125.14283203 12.79664063 125.14283203 12.79664063 123.73632812 13.06689453 C122.81980469 13.24091797 121.90328125 13.41494141 120.95898438 13.59423828 C118.72092968 13.90654442 118.72092968 13.90654442 117.67382812 15.12939453 C116.79183753 21.40776506 116.53370691 27.53989584 116.56030273 33.87182617 C116.56015671 34.79972961 116.56001068 35.72763306 116.55986023 36.68365479 C116.56055111 39.7189781 116.56830454 42.75423832 116.57617188 45.78955078 C116.57803899 47.90661078 116.57946151 50.02367122 116.58045959 52.14073181 C116.58426168 57.68908906 116.59407208 63.23741977 116.60516357 68.7857666 C116.61542751 74.45694622 116.61996786 80.12813016 116.625 85.79931641 C116.63569657 96.90935405 116.65274504 108.01937208 116.67382812 119.12939453 C119.31382812 119.12939453 121.95382812 119.12939453 124.67382812 119.12939453 C124.67382812 120.44939453 124.67382812 121.76939453 124.67382812 123.12939453 C122.36382812 123.12939453 120.05382812 123.12939453 117.67382812 123.12939453 C117.67382812 123.78939453 117.67382812 124.44939453 117.67382812 125.12939453 C122.29382813 125.78939453 126.91382813 126.44939453 131.67382812 127.12939453 C131.67382812 128.44939453 131.67382812 129.76939453 131.67382812 131.12939453 C115.50382812 131.12939453 99.33382812 131.12939453 82.67382812 131.12939453 C82.34382813 129.80939453 82.01382813 128.48939453 81.67382812 127.12939453 C82.73923828 126.94763672 82.73923828 126.94763672 83.82617188 126.76220703 C84.74527344 126.59462891 85.664375 126.42705078 86.61132812 126.25439453 C87.52785156 126.09197266 88.444375 125.92955078 89.38867188 125.76220703 C90.51982422 125.44896484 90.51982422 125.44896484 91.67382812 125.12939453 C92.00382812 124.46939453 92.33382812 123.80939453 92.67382812 123.12939453 C86.73382813 123.12939453 80.79382813 123.12939453 74.67382812 123.12939453 C74.34382813 122.13939453 74.01382813 121.14939453 73.67382812 120.12939453 C75.32759524 118.47562742 77.48331177 118.49468245 79.73632812 118.06689453 C81.11498047 117.80199219 81.11498047 117.80199219 82.52148438 117.53173828 C83.23175781 117.39896484 83.94203125 117.26619141 84.67382812 117.12939453 C88.2120708 106.5146665 86.9806839 93.49776803 87.23632812 82.37939453 C87.38070312 76.35689453 87.52507812 70.33439453 87.67382812 64.12939453 C70.84382813 64.12939453 54.01382813 64.12939453 36.67382812 64.12939453 C37.00382812 82.27939453 37.33382812 100.42939453 37.67382812 119.12939453 C39.98382813 119.12939453 42.29382813 119.12939453 44.67382812 119.12939453 C45.33382812 120.44939453 45.99382812 121.76939453 46.67382812 123.12939453 C43.20882812 124.11939453 43.20882812 124.11939453 39.67382812 125.12939453 C43.96382812 125.78939453 48.25382812 126.44939453 52.67382812 127.12939453 C53.00382812 128.44939453 53.33382812 129.76939453 53.67382812 131.12939453 C52.07566112 132.72756153 50.39856314 132.25670434 48.18579102 132.25878906 C46.75409325 132.2635173 46.75409325 132.2635173 45.29347229 132.26834106 C44.25496628 132.26631683 43.21646027 132.2642926 42.14648438 132.26220703 C40.55760658 132.26364212 40.55760658 132.26364212 38.93663025 132.2651062 C36.69123271 132.26578823 34.44583322 132.26393237 32.20043945 132.25976562 C28.75467512 132.25442298 25.30904146 132.25970715 21.86328125 132.26611328 C19.68684867 132.2654524 17.51041617 132.26417103 15.33398438 132.26220703 C14.29750259 132.26423126 13.26102081 132.26625549 12.19313049 132.26834106 C11.23551315 132.2651889 10.27789581 132.26203674 9.29125977 132.25878906 C8.44600235 132.25799347 7.60074493 132.25719788 6.72987366 132.25637817 C4.67382812 132.12939453 4.67382812 132.12939453 2.67382812 131.12939453 C3.16882813 129.14939453 3.16882813 129.14939453 3.67382812 127.12939453 C4.31191406 127.08041016 4.95 127.03142578 5.60742188 126.98095703 C6.84685547 126.86880859 6.84685547 126.86880859 8.11132812 126.75439453 C9.34689453 126.64998047 9.34689453 126.64998047 10.60742188 126.54345703 C11.63029297 126.33849609 11.63029297 126.33849609 12.67382812 126.12939453 C13.00382812 125.46939453 13.33382812 124.80939453 13.67382812 124.12939453 C8.06382812 124.12939453 2.45382813 124.12939453 -3.32617188 124.12939453 C-3.65617188 122.80939453 -3.98617187 121.48939453 -4.32617188 120.12939453 C0.62382812 119.13939453 0.62382812 119.13939453 5.67382812 118.12939453 C7.18863203 111.36232708 7.9753238 105.1035047 7.99267578 98.18164062 C8.00272141 97.24383759 8.01276703 96.30603455 8.02311707 95.33981323 C8.05370829 92.27749172 8.07091665 89.21525663 8.08789062 86.15283203 C8.10662167 84.01477324 8.1261965 81.87672169 8.14657593 79.73867798 C8.19769856 74.13942757 8.23743018 68.54015324 8.27471924 62.9407959 C8.314884 57.2158425 8.36591921 51.49098687 8.41601562 45.76611328 C8.51253943 34.55394258 8.59701895 23.34171642 8.67382812 12.12939453 C6.03382813 12.12939453 3.39382812 12.12939453 0.67382812 12.12939453 C1.00382813 10.80939453 1.33382812 9.48939453 1.67382812 8.12939453 C3.32382813 7.79939453 4.97382813 7.46939453 6.67382812 7.12939453 C0.73382813 6.13939453 0.73382813 6.13939453 -5.32617188 5.12939453 C-5.65617188 3.80939453 -5.98617187 2.48939453 -6.32617188 1.12939453 C-3.98572809 -0.04082736 -2.60711473 0.00262908 0 0 Z " fill="#CE4036" transform="translate(135.326171875,184.87060546875)"/>
<path d="M0 0 C173.58 0 347.16 0 526 0 C526 2.31 526 4.62 526 7 C528.64 7 531.28 7 534 7 C534 9.97 534 12.94 534 16 C483.86689835 16.01710966 433.7337965 16.0330314 383.60069275 16.04234314 C382.85930886 16.0424812 382.11792497 16.04261925 381.3540749 16.04276149 C365.24378036 16.04575405 349.13348578 16.04852428 333.02319116 16.05106533 C325.12328954 16.05231272 317.22338793 16.05360927 309.32348633 16.05493164 C308.53732983 16.0550624 307.75117333 16.05519316 306.94119391 16.05532788 C281.43623074 16.0595931 255.93126979 16.06710729 230.42630796 16.07629722 C204.22778085 16.08571996 178.02925496 16.09188315 151.83072618 16.09391499 C148.1346884 16.09420317 144.43865062 16.0945288 140.74261284 16.09487724 C140.01514311 16.09494467 139.28767338 16.09501209 138.53815911 16.09508156 C126.80386072 16.09626562 115.0695661 16.10090997 103.33526925 16.10683203 C91.55290901 16.1127051 79.77055285 16.11489029 67.98819119 16.11350138 C61.59834717 16.11285765 55.20851426 16.11387945 48.81867218 16.11920547 C42.97929607 16.12403745 37.13993865 16.12433999 31.30056172 16.12089889 C29.17808114 16.120473 27.05559943 16.12177043 24.93312109 16.12488318 C22.06798549 16.12884376 19.2029191 16.12676553 16.33778477 16.12304783 C15.07589673 16.12698835 15.07589673 16.12698835 13.78851601 16.13100848 C8.1141458 16.1141458 8.1141458 16.1141458 7 15 C6.95919217 13.00041636 6.95745644 10.99954746 7 9 C5.5459375 9.0309375 5.5459375 9.0309375 4.0625 9.0625 C1 9 1 9 0 8 C0 5.36 0 2.72 0 0 Z " fill="#C69832" transform="translate(129,460)"/>
<path d="M0 0 C0.92941406 0.33128906 1.85882813 0.66257813 2.81640625 1.00390625 C17.69146346 7.72095891 30.03537819 23.19271476 35.80859375 38.0859375 C36.41711728 40.07517995 36.74318406 41.93446605 37 44 C37.19722656 45.53720703 37.19722656 45.53720703 37.3984375 47.10546875 C39.0981115 64.12109406 35.54949177 79.38412263 25 93 C22.5625 95.6875 22.5625 95.6875 20 98 C19.28457031 98.70382812 19.28457031 98.70382812 18.5546875 99.421875 C5.62244028 111.54195211 -10.99229866 113.72233401 -27.96484375 113.28125 C-45.6179923 112.49184146 -57.82162662 105.05464535 -70 93 C-71.03833984 92.05253906 -71.03833984 92.05253906 -72.09765625 91.0859375 C-82.44685997 81.48733537 -87.91460211 67.5014092 -89.22265625 53.640625 C-89.76214614 39.28550271 -85.05369295 25.52482274 -75.6875 14.6875 C-56.13380092 -5.64834704 -26.15968397 -9.55423697 0 0 Z M-48.98046875 19.75390625 C-57.9112681 29.17980322 -59.18912535 40.19135305 -59.25 52.625 C-59.270625 53.65496094 -59.29125 54.68492187 -59.3125 55.74609375 C-59.37205168 67.58198955 -56.44722709 80.5205397 -48.51171875 89.7265625 C-41.36066557 95.51128542 -30.61789469 97.72160935 -21.625 97.31640625 C-12.53704716 96.22098336 -5.03020926 93.12686485 0.72265625 85.80859375 C9.67384416 72.10689826 9.58735462 54.97283756 7.49609375 39.19921875 C5.44565567 30.16557443 2.03469173 21.15433054 -6 16 C-19.96303305 8.53612415 -36.90650541 9.06118527 -48.98046875 19.75390625 Z " fill="#CF4036" transform="translate(348,197)"/>
<path d="M0 0 C0.80671143 0.00142502 1.61342285 0.00285004 2.44458008 0.00431824 C3.35892822 0.00124161 4.27327637 -0.00183502 5.21533203 -0.00500488 C6.2049292 0.00218063 7.19452637 0.00936615 8.21411133 0.01676941 C9.73427856 0.01745674 9.73427856 0.01745674 11.28515625 0.01815796 C13.43043181 0.02118247 15.57570514 0.02907466 17.72094727 0.04142761 C21.01301821 0.05966286 24.30480771 0.06193748 27.59692383 0.06169128 C29.67765544 0.06660717 31.75838513 0.0724358 33.83911133 0.07926941 C34.8287085 0.08038223 35.81830566 0.08149506 36.83789062 0.0826416 C37.75223877 0.08902145 38.66658691 0.09540131 39.60864258 0.10197449 C40.81870972 0.10769218 40.81870972 0.10769218 42.05322266 0.11352539 C44.02661133 0.24723816 44.02661133 0.24723816 46.02661133 1.24723816 C45.69661133 2.56723816 45.36661133 3.88723816 45.02661133 5.24723816 C42.97583008 5.47510274 40.92504883 5.70296733 38.87426758 5.93083191 C37.01520904 6.0661043 37.01520904 6.0661043 36.02661133 7.24723816 C41.63661133 7.57723816 47.24661133 7.90723816 53.02661133 8.24723816 C53.52161133 9.73223816 53.52161133 9.73223816 54.02661133 11.24723816 C50.04274747 12.41896282 46.10390845 13.46558016 42.02661133 14.24723816 C41.17526521 27.91438395 40.91667092 41.55755967 40.90161133 55.24723816 C40.89911377 56.03343536 40.89661621 56.81963257 40.89404297 57.62965393 C40.20951034 79.52802833 40.20951034 79.52802833 46.02661133 100.24723816 C50.19210754 104.43238294 56.412605 105.01743876 62.08520508 105.34880066 C71.06689904 105.03867577 78.89017087 102.50186263 85.21411133 95.99723816 C89.79196408 89.05153053 91.12514696 81.65999439 91.23193359 73.43742371 C91.24183319 72.77345078 91.25173279 72.10947784 91.26193237 71.42538452 C91.29335559 69.24494411 91.31822832 67.06448197 91.34301758 64.88395691 C91.3636037 63.36652074 91.3846006 61.84909009 91.4059906 60.33166504 C91.46104006 56.34838853 91.51052445 52.36506175 91.55883789 48.38169861 C91.60917839 44.31274469 91.6647988 40.2438633 91.7199707 36.17497253 C91.82734263 28.19912249 91.92883366 20.22321156 92.02661133 12.24723816 C89.71661133 12.24723816 87.40661133 12.24723816 85.02661133 12.24723816 C85.02661133 10.92723816 85.02661133 9.60723816 85.02661133 8.24723816 C87.50161133 7.75223816 87.50161133 7.75223816 90.02661133 7.24723816 C86.06661133 6.58723816 82.10661133 5.92723816 78.02661133 5.24723816 C78.35661133 3.59723816 78.68661133 1.94723816 79.02661133 0.24723816 C92.22661133 0.24723816 105.42661133 0.24723816 119.02661133 0.24723816 C119.52161133 2.72223816 119.52161133 2.72223816 120.02661133 5.24723816 C119.06948242 5.33811707 119.06948242 5.33811707 118.09301758 5.43083191 C117.26672852 5.51462097 116.44043945 5.59841003 115.58911133 5.68473816 C114.35354492 5.80655457 114.35354492 5.80655457 113.09301758 5.93083191 C111.03999107 6.0365463 111.03999107 6.0365463 110.02661133 7.24723816 C115.63661133 7.57723816 121.24661133 7.90723816 127.02661133 8.24723816 C127.02661133 9.56723816 127.02661133 10.88723816 127.02661133 12.24723816 C123.39661133 12.90723816 119.76661133 13.56723816 116.02661133 14.24723816 C115.44778054 25.9136374 114.96710706 37.56615081 114.85083008 49.24723816 C114.83891632 50.235224 114.82700256 51.22320984 114.81472778 52.24113464 C114.76631472 56.26027705 114.71837184 60.2790953 114.70068359 64.29850769 C114.61250817 81.22547647 114.29031899 97.43193008 101.99145508 110.39176941 C90.39705827 121.41360341 77.98560076 123.84952479 62.53833008 123.49333191 C50.56935169 122.98760043 39.14292603 119.41022931 30.33911133 110.99723816 C28.02661133 108.24723816 28.02661133 108.24723816 28.02661133 106.24723816 C27.42848633 105.99071472 26.83036133 105.73419128 26.21411133 105.46989441 C19.32165907 101.61750591 15.50660937 92.42621767 13.42507935 85.14228821 C11.72171789 77.463265 11.77109075 69.88302907 11.83129883 62.05192566 C11.83503741 60.60890399 11.83788038 59.16587975 11.83987427 57.72285461 C11.84744433 53.95818346 11.8670343 50.19367109 11.88928223 46.42906189 C11.90988498 42.57420498 11.91890658 38.71932197 11.92895508 34.86442566 C11.95028775 27.32529143 11.98434166 19.7862872 12.02661133 12.24723816 C9.71661133 12.24723816 7.40661133 12.24723816 5.02661133 12.24723816 C5.02661133 10.92723816 5.02661133 9.60723816 5.02661133 8.24723816 C6.34661133 7.91723816 7.66661133 7.58723816 9.02661133 7.24723816 C6.5927338 6.0302994 4.60822287 5.9276392 1.90161133 5.68473816 C0.9915332 5.6009491 0.08145508 5.51716003 -0.85620117 5.43083191 C-1.55487305 5.37024597 -2.25354492 5.30966003 -2.97338867 5.24723816 C-3.30338867 4.25723816 -3.63338867 3.26723816 -3.97338867 2.24723816 C-1.97338867 0.24723816 -1.97338867 0.24723816 0 0 Z " fill="#CF4036" transform="translate(383.973388671875,184.7527618408203)"/>
<path d="M0 0 C-0.33 2.31 -0.66 4.62 -1 7 C1.64 7 4.28 7 7 7 C8.19288529 9.38577058 7.99424673 10.4071532 7.6953125 13.02734375 C7.56189453 14.21553711 7.56189453 14.21553711 7.42578125 15.42773438 C7.32652344 16.25595703 7.22726562 17.08417969 7.125 17.9375 C6.98771484 19.1740332 6.98771484 19.1740332 6.84765625 20.43554688 C6.45934516 23.80182118 6.07622561 26.77132316 5 30 C3.68 30 2.36 30 1 30 C0.01 26.04 0.01 26.04 -1 22 C-2.65 22.33 -4.3 22.66 -6 23 C-6.495 21.02 -6.495 21.02 -7 19 C-14.92 18.34 -22.84 17.68 -31 17 C-31 27.56 -31 38.12 -31 49 C-28.525 48.505 -28.525 48.505 -26 48 C-22.59771606 47.81347885 -19.2010008 47.65724979 -15.79492188 47.5703125 C-11.45142459 47.37454924 -9.34585267 46.66773999 -6 44 C-4.02 44.495 -4.02 44.495 -2 45 C-2 47.97 -2 50.94 -2 54 C-1.401875 53.484375 -0.80375 52.96875 -0.1875 52.4375 C0.534375 51.963125 1.25625 51.48875 2 51 C3.485 51.495 3.485 51.495 5 52 C4.34 60.25 3.68 68.5 3 77 C1.68 77 0.36 77 -1 77 C-1.99 73.04 -1.99 73.04 -3 69 C-4.65 69.33 -6.3 69.66 -8 70 C-8.33 68.35 -8.66 66.7 -9 65 C-16.26 65 -23.52 65 -31 65 C-31 81.17 -31 97.34 -31 114 C-12.79993228 114.25131904 -12.79993228 114.25131904 -4 110 C-2.33980682 107.58226917 -2.33980682 107.58226917 -1.5625 104.8125 C-1.25441406 103.91144531 -0.94632813 103.01039063 -0.62890625 102.08203125 C-0.42136719 101.39496094 -0.21382812 100.70789063 0 100 C1.98 100.495 1.98 100.495 4 101 C3.67 106.61 3.34 112.22 3 118 C4.32 114.37 5.64 110.74 7 107 C8.32 107 9.64 107 11 107 C11.52427184 124.21359223 11.52427184 124.21359223 7 131 C4.33081055 131.43237305 4.33081055 131.43237305 0.88671875 131.51171875 C-1.05448853 131.56513428 -1.05448853 131.56513428 -3.03491211 131.61962891 C-4.46076376 131.64293421 -5.886627 131.66553971 -7.3125 131.6875 C-8.77418651 131.71979816 -10.23585652 131.75285106 -11.69750977 131.78662109 C-23.27539343 132.0329441 -34.85728691 132.09835655 -46.4375 132.125 C-47.25562164 132.12776947 -48.07374329 132.13053894 -48.91665649 132.13339233 C-51.23485015 132.13914555 -53.55290013 132.13743513 -55.87109375 132.1328125 C-56.56542511 132.13478134 -57.25975647 132.13675018 -57.97512817 132.13877869 C-62.76918312 132.11540844 -62.76918312 132.11540844 -65 131 C-65 129.68 -65 128.36 -65 127 C-60.05 126.505 -60.05 126.505 -55 126 C-55 125.34 -55 124.68 -55 124 C-60.28 124 -65.56 124 -71 124 C-71.66 122.68 -72.32 121.36 -73 120 C-71.33657163 118.33657163 -69.2174291 118.63951903 -66.9375 118.4375 C-66.01839844 118.35371094 -65.09929688 118.26992188 -64.15234375 118.18359375 C-63.44207031 118.12300781 -62.73179687 118.06242187 -62 118 C-60.72883377 113.08132286 -60.82601349 108.20495776 -60.79467773 103.16088867 C-60.78477814 102.17504791 -60.77487854 101.18920715 -60.76467896 100.17349243 C-60.73314383 96.92167546 -60.70833807 93.66984389 -60.68359375 90.41796875 C-60.66301733 88.16066615 -60.64202068 85.90336734 -60.62062073 83.64607239 C-60.56547114 77.70971757 -60.51603048 71.77332838 -60.46777344 65.83691406 C-60.41750647 59.7773127 -60.36184753 53.71776114 -60.30664062 47.65820312 C-60.19914605 35.77217798 -60.09768176 23.88610956 -60 12 C-62.31 12 -64.62 12 -67 12 C-67 10.68 -67 9.36 -67 8 C-65.35 7.67 -63.7 7.34 -62 7 C-64.43387753 5.78306124 -66.41838846 5.68040104 -69.125 5.4375 C-70.03507813 5.35371094 -70.94515625 5.26992187 -71.8828125 5.18359375 C-72.58148437 5.12300781 -73.28015625 5.06242188 -74 5 C-74.33 3.68 -74.66 2.36 -75 1 C-72.15008853 -0.42495573 -69.68850565 -0.17229015 -66.50244141 -0.22119141 C-65.83557816 -0.2326973 -65.1687149 -0.24420319 -64.48164368 -0.25605774 C-62.27166374 -0.29281274 -60.06165505 -0.32242246 -57.8515625 -0.3515625 C-56.31700231 -0.37467719 -54.78244625 -0.39806752 -53.24789429 -0.42172241 C-50.02825532 -0.47020985 -46.80859077 -0.51513179 -43.58886719 -0.55761719 C-39.4639025 -0.61236212 -35.33913835 -0.67621356 -31.21434975 -0.74279213 C-28.04368055 -0.79290811 -24.87295506 -0.83801604 -21.7021904 -0.88163376 C-20.18153949 -0.90318535 -18.66091029 -0.9263305 -17.14030838 -0.9510994 C-15.01235476 -0.98504001 -12.88441808 -1.01219783 -10.75634766 -1.03759766 C-8.94005356 -1.06305161 -8.94005356 -1.06305161 -7.08706665 -1.08901978 C-4.50563496 -1.01458067 -2.4458355 -0.77147023 0 0 Z " fill="#CF4236" transform="translate(651,185)"/>
<path d="M0 0 C2.31761263 1.88363735 4.05738487 3.69953472 6 6 C6 6.66 6 7.32 6 8 C6.89332031 8.37705078 6.89332031 8.37705078 7.8046875 8.76171875 C10.28674204 10.16173884 11.4519342 11.52188897 13.125 13.8125 C13.62257813 14.47894531 14.12015625 15.14539063 14.6328125 15.83203125 C18.51232212 21.98382508 18.94966774 27.88176975 18 35 C14.91560691 44.19454061 8.81521047 52.18478953 2 59 C2.06518538 61.04445069 2.20321018 63.08673701 2.375 65.125 C2.52388672 66.89810547 2.52388672 66.89810547 2.67578125 68.70703125 C2.90965571 71.0824068 3.21411166 73.45120124 3.5625 75.8125 C4.08160612 79.59455887 4.02746257 83.18270228 4 87 C-0.62403938 88.02659155 -5.25043598 89.04147593 -9.87939453 90.0456543 C-11.45333756 90.38880954 -13.02659211 90.7351388 -14.59912109 91.0847168 C-16.86121346 91.58700705 -19.12554629 92.07778386 -21.390625 92.56640625 C-22.09181458 92.72468399 -22.79300415 92.88296173 -23.51544189 93.04603577 C-26.95791978 93.77698616 -29.65726832 94.29287268 -33 93 C-33.495 89.535 -33.495 89.535 -34 86 C-36.475 86.495 -36.475 86.495 -39 87 C-44 73.81818182 -44 73.81818182 -44 69 C-44.99 68.938125 -45.98 68.87625 -47 68.8125 C-52.83585113 67.99405746 -58.17059323 64.4203646 -62 60 C-62 59.34 -62 58.68 -62 58 C-62.556875 57.79375 -63.11375 57.5875 -63.6875 57.375 C-68.70333745 54.39261016 -71.87172849 49.32067878 -74 44 C-75.54344526 37.3852346 -74.79549715 32.20883967 -72 26 C-68.34702955 20.35938386 -63.4316818 16.14389393 -57 14 C-55.04433497 13.88020855 -53.08429234 13.82471504 -51.125 13.8125 C-50.09632813 13.79832031 -49.06765625 13.78414062 -48.0078125 13.76953125 C-44.94536512 14.00418631 -42.76751139 14.70815428 -40 16 C-39.89042969 15.33613281 -39.78085937 14.67226562 -39.66796875 13.98828125 C-37.71265497 3.09893212 -37.71265497 3.09893212 -33.2734375 -0.3359375 C-22.02583971 -7.8488117 -11.21391916 -7.24473128 0 0 Z " fill="#CF4036" transform="translate(324,100)"/>
<path d="M0 0 C0 2.31 0 4.62 0 7 C2.31 7 4.62 7 7 7 C6.86105852 10.10451549 6.712657 13.20850835 6.5625 16.3125 C6.52318359 17.19357422 6.48386719 18.07464844 6.44335938 18.98242188 C6.40146484 19.82998047 6.35957031 20.67753906 6.31640625 21.55078125 C6.27974854 22.33106689 6.24309082 23.11135254 6.20532227 23.9152832 C6 26 6 26 5 29 C3.35 28.67 1.7 28.34 0 28 C-0.99 24.535 -0.99 24.535 -2 21 C-3.32 21.33 -4.64 21.66 -6 22 C-6.495 20.02 -6.495 20.02 -7 18 C-15.25 17.67 -23.5 17.34 -32 17 C-32 27.89 -32 38.78 -32 50 C-28.4525 49.896875 -24.905 49.79375 -21.25 49.6875 C-20.13786133 49.66260498 -19.02572266 49.63770996 -17.87988281 49.61206055 C-16.99655273 49.57894775 -16.11322266 49.54583496 -15.203125 49.51171875 C-13.85202637 49.47244263 -13.85202637 49.47244263 -12.47363281 49.43237305 C-9.59016778 48.9283643 -8.29929499 47.73532266 -6 46 C-4.515 46.495 -4.515 46.495 -3 47 C-2.875 53.625 -2.875 53.625 -4 57 C-3.01 56.67 -2.02 56.34 -1 56 C-0.505 55.01 -0.505 55.01 0 54 C1.65 54 3.3 54 5 54 C4.34 61.92 3.68 69.84 3 78 C1.68 78.33 0.36 78.66 -1 79 C-1.99 76.03 -2.98 73.06 -4 70 C-5.65 70.33 -7.3 70.66 -9 71 C-9 69.68 -9 68.36 -9 67 C-16.26 67 -23.52 67 -31 67 C-31.33 79.21 -31.66 91.42 -32 104 C-27.2665625 103.8453125 -27.2665625 103.8453125 -22.4375 103.6875 C-21.4570874 103.66260498 -20.4766748 103.63770996 -19.46655273 103.61206055 C-13.96989053 103.38300973 -9.78226052 102.81019433 -5 100 C-3.13709642 97.58798918 -3.13709642 97.58798918 -2.0625 94.8125 C-1.66160156 93.91144531 -1.26070312 93.01039063 -0.84765625 92.08203125 C-0.42806641 91.05142578 -0.42806641 91.05142578 0 90 C1.98 90.495 1.98 90.495 4 91 C3.67 96.28 3.34 101.56 3 107 C4.32 103.7 5.64 100.4 7 97 C8.98 97.495 8.98 97.495 11 98 C11.58874806 113.60182365 11.58874806 113.60182365 7.37823486 119.12884521 C4.16852519 121.65419026 2.17740204 121.48329066 -1.87988281 121.45410156 C-2.56321686 121.45468567 -3.2465509 121.45526978 -3.95059204 121.45587158 C-6.20195899 121.453092 -8.45199032 121.42200908 -10.703125 121.390625 C-12.266818 121.38316209 -13.83052037 121.37746939 -15.39422607 121.37347412 C-19.50441433 121.35822154 -23.61403471 121.3189436 -27.72399902 121.2746582 C-31.92008787 121.23369701 -36.11626873 121.21546133 -40.3125 121.1953125 C-48.5419269 121.15244842 -56.77089275 121.08420233 -65 121 C-65.66 119.68 -66.32 118.36 -67 117 C-64.95301586 114.95301586 -60.69588759 115.29954307 -58 115 C-59.35544922 114.92652344 -59.35544922 114.92652344 -60.73828125 114.8515625 C-61.91777344 114.77679688 -63.09726562 114.70203125 -64.3125 114.625 C-65.48425781 114.55539062 -66.65601563 114.48578125 -67.86328125 114.4140625 C-71 114 -71 114 -74 112 C-74 111.01 -74 110.02 -74 109 C-69.05 108.01 -69.05 108.01 -64 107 C-62.19587961 101.5780045 -61.69657105 96.82090527 -61.68115234 91.12719727 C-61.67110672 90.26786087 -61.6610611 89.40852448 -61.65071106 88.52314758 C-61.62000781 85.70424014 -61.60287986 82.8854271 -61.5859375 80.06640625 C-61.5672155 78.10342097 -61.54764132 76.14044365 -61.5272522 74.17747498 C-61.47603407 69.02699487 -61.43635319 63.8764887 -61.39910889 58.72589111 C-61.35900444 53.46368009 -61.30794152 48.20157651 -61.2578125 42.93945312 C-61.16117544 32.62637768 -61.07673166 22.31324142 -61 12 C-63.64 12 -66.28 12 -69 12 C-69 10.68 -69 9.36 -69 8 C-67.35 7.67 -65.7 7.34 -64 7 C-69.94 5.515 -69.94 5.515 -76 4 C-76 3.01 -76 2.02 -76 1 C-72.61348154 -0.12883949 -69.96006738 -0.16627881 -66.38891602 -0.22119141 C-65.72190674 -0.2326973 -65.05489746 -0.24420319 -64.36767578 -0.25605774 C-62.16313257 -0.29273391 -59.95856063 -0.32239089 -57.75390625 -0.3515625 C-56.22077539 -0.37468377 -54.68764857 -0.39807416 -53.15452576 -0.42172241 C-49.94086281 -0.47016561 -46.72717431 -0.5150952 -43.51342773 -0.55761719 C-39.39633959 -0.61240733 -35.27945062 -0.67625622 -31.16253757 -0.74279213 C-27.99615959 -0.79290174 -24.82972529 -0.83801109 -21.66325188 -0.88163376 C-20.14539195 -0.90318141 -18.62755382 -0.92632595 -17.10974312 -0.9510994 C-14.98668828 -0.98503707 -12.86365035 -1.01219543 -10.74047852 -1.03759766 C-9.53263199 -1.05456696 -8.32478546 -1.07153625 -7.08033752 -1.08901978 C-4.50180118 -1.01450173 -2.44335649 -0.77020412 0 0 Z " fill="#CF4036" transform="translate(646,320)"/>
<path d="M0 0 C7.3099465 -0.05111648 14.61984613 -0.08590678 21.92993164 -0.10986328 C24.41172 -0.11986074 26.89349676 -0.13346314 29.37524414 -0.15087891 C32.96243164 -0.17540422 36.54946209 -0.18654601 40.13671875 -0.1953125 C41.77503914 -0.21079636 41.77503914 -0.21079636 43.44645691 -0.22659302 C57.17464216 -0.22854922 70.36024991 0.8849303 80.56787109 10.82177734 C81.4314624 11.71437256 81.4314624 11.71437256 82.3125 12.625 C82.91916504 13.24455566 83.52583008 13.86411133 84.15087891 14.50244141 C89.64358245 20.32010358 92.93641847 25.88571208 93.4375 34 C92.79550935 44.29255977 88.22027893 53.33899932 80.6875 60.3125 C72.05138511 67.13446384 60.87481652 69.69413722 50 69 C49.01 68.505 49.01 68.505 48 68 C48 66.68 48 65.36 48 64 C48.74765625 63.89042969 49.4953125 63.78085937 50.265625 63.66796875 C51.74289062 63.43013672 51.74289062 63.43013672 53.25 63.1875 C54.22453125 63.03667969 55.1990625 62.88585937 56.203125 62.73046875 C59.12322338 61.96781736 60.74205815 60.96225899 63 59 C62.113125 59.33 61.22625 59.66 60.3125 60 C56 61 56 61 43 61 C43 75.19 43 89.38 43 104 C45.64 104 48.28 104 51 104 C51.99 104.495 51.99 104.495 53 105 C52.505 106.98 52.505 106.98 52 109 C49.03 109.495 49.03 109.495 46 110 C48.56893838 111.28446919 50.76576337 111.32977144 53.625 111.5625 C55.12933594 111.68818359 55.12933594 111.68818359 56.6640625 111.81640625 C57.43492187 111.87699219 58.20578125 111.93757813 59 112 C59 113.32 59 114.64 59 116 C42.5 116 26 116 9 116 C9 114.68 9 113.36 9 112 C9.63808594 111.93941406 10.27617187 111.87882812 10.93359375 111.81640625 C12.17302734 111.69072266 12.17302734 111.69072266 13.4375 111.5625 C14.26121094 111.48128906 15.08492188 111.40007812 15.93359375 111.31640625 C17.98662025 111.21069185 17.98662025 111.21069185 19 110 C13.39 109.67 7.78 109.34 2 109 C1.67 107.68 1.34 106.36 1 105 C1.69867188 104.91363281 2.39734375 104.82726562 3.1171875 104.73828125 C8.5164116 104.14003286 8.5164116 104.14003286 12.5625 101 C14.05123014 90.79156475 14.13131192 80.69201438 14.09765625 70.3984375 C14.09578778 68.70879153 14.09436591 67.019145 14.09336853 65.32949829 C14.0895771 60.91386379 14.07977618 56.49826294 14.06866455 52.0826416 C14.05837734 47.56421361 14.05385535 43.04578011 14.04882812 38.52734375 C14.03815041 29.6848805 14.02111523 20.84244446 14 12 C11.69 12 9.38 12 7 12 C6.67 10.68 6.34 9.36 6 8 C7.98 7.67 9.96 7.34 12 7 C7.71 6.01 3.42 5.02 -1 4 C-0.67 2.68 -0.34 1.36 0 0 Z M43 16 C43 29.2 43 42.4 43 56 C50.78244489 56 54.09074522 54.7710488 59.546875 49.5078125 C65.09970804 43.20371381 65.39525498 37.5156114 65.2421875 29.39453125 C64.92856413 24.99874567 64.50478487 22.63597804 62 19 C56.02797332 15.48704313 49.72994427 14.31751393 43 16 Z " fill="#CF4036" transform="translate(489,324)"/>
<path d="M0 0 C105.93 0 211.86 0 321 0 C321 2.31 321 4.62 321 7 C323.64 7 326.28 7 329 7 C329 9.97 329 12.94 329 16 C222.74 16 116.48 16 7 16 C7 13.69 7 11.38 7 9 C4.69 9 2.38 9 0 9 C0 6.03 0 3.06 0 0 Z " fill="#C59833" transform="translate(334,161)"/>
<path d="M0 0 C0.020625 0.763125 0.04125 1.52625 0.0625 2.3125 C0.79660949 5.41389118 0.79660949 5.41389118 4.5625 6.8125 C5.696875 7.204375 6.83125 7.59625 8 8 C8.02900455 11.6041498 8.04680018 15.20826962 8.0625 18.8125 C8.07087891 19.83666016 8.07925781 20.86082031 8.08789062 21.91601562 C8.09111328 22.89892578 8.09433594 23.88183594 8.09765625 24.89453125 C8.10289307 25.80050049 8.10812988 26.70646973 8.11352539 27.63989258 C8 30 8 30 7 33 C5.02 32.505 5.02 32.505 3 32 C2.34 29.69 1.68 27.38 1 25 C-0.65 25.33 -2.3 25.66 -4 26 C-4.66 22.7 -5.32 19.4 -6 16 C-13.32204374 14.38939816 -19.86771344 13.11208029 -27 16 C-29.77039685 17.84693124 -31.51562895 19.0312579 -33 22 C-33.5197324 26.73723303 -33.52599673 30.78064394 -31.625 35.1875 C-28.60295863 38.42540147 -25.36162616 40.65091394 -21.6953125 43.109375 C-17.08824282 46.34100069 -13.07188931 50.12799306 -9 54 C-8.4313623 54.53077148 -7.86272461 55.06154297 -7.27685547 55.60839844 C1.64715391 63.97214551 10.1616933 71.98154776 11.23828125 84.84765625 C11.46135841 94.51041941 10.02541516 102.53396893 4 110.3125 C-4.06799988 118.74407928 -15.36942757 121.91225712 -26.671875 122.28051758 C-35.74017724 122.42007909 -46.96953337 122.41983925 -54 116 C-54.12375 115.34 -54.2475 114.68 -54.375 114 C-54.58125 113.34 -54.7875 112.68 -55 112 C-56.98 111.01 -58.96 110.02 -61 109 C-61 100.09 -61 91.18 -61 82 C-58.525 81.505 -58.525 81.505 -56 81 C-55.67 84.3 -55.34 87.6 -55 91 C-54.34 91 -53.68 91 -53 91 C-52.67 90.01 -52.34 89.02 -52 88 C-51.01 88 -50.02 88 -49 88 C-48.81824219 88.83144531 -48.63648438 89.66289062 -48.44921875 90.51953125 C-48.19785156 91.60621094 -47.94648437 92.69289063 -47.6875 93.8125 C-47.44386719 94.89144531 -47.20023438 95.97039062 -46.94921875 97.08203125 C-46.00405632 99.98753057 -45.41481308 101.20528707 -43 103 C-36.58575345 105.13808218 -29.27652459 104.88769506 -23 102.375 C-18.98076844 100.27420383 -16.81685441 98.26565819 -15 94 C-14.10171239 88.36442718 -14.51319074 83.00463125 -17.3515625 77.9921875 C-20.30522057 74.42260074 -24.08456862 71.94552418 -27.84375 69.28125 C-32.56559806 65.86842912 -36.77217545 61.9981983 -41 58 C-41.86882813 57.195625 -42.73765625 56.39125 -43.6328125 55.5625 C-52.65770535 46.94170683 -58.31176091 38.67181256 -59.3125 26.0625 C-59.00751259 17.84389188 -55.94254791 11.92164982 -50.30078125 6.01171875 C-36.16408346 -6.34889138 -16.89026862 -3.92470972 0 0 Z " fill="#CF4036" transform="translate(568,186)"/>
<path d="M0 0 C1.35117416 0.0001133 1.35117416 0.0001133 2.72964478 0.00022888 C3.70364227 0.00539017 4.67763977 0.01055145 5.68115234 0.01586914 C6.67714447 0.01728409 7.6731366 0.01869904 8.6993103 0.02015686 C11.88860037 0.02576603 15.0778209 0.03832009 18.26708984 0.05102539 C20.425943 0.05603921 22.58479725 0.06060232 24.74365234 0.06469727 C30.04315534 0.07573844 35.34261763 0.09248552 40.64208984 0.11352539 C40.97208984 1.43352539 41.30208984 2.75352539 41.64208984 4.11352539 C40.57667969 4.31268555 40.57667969 4.31268555 39.48974609 4.51586914 C38.11109375 4.78077148 38.11109375 4.78077148 36.70458984 5.05102539 C35.78806641 5.22504883 34.87154297 5.39907227 33.92724609 5.57836914 C31.6891914 5.89067528 31.6891914 5.89067528 30.64208984 7.11352539 C36.58208984 7.44352539 42.52208984 7.77352539 48.64208984 8.11352539 C48.97208984 8.77352539 49.30208984 9.43352539 49.64208984 10.11352539 C49.31208984 10.77352539 48.98208984 11.43352539 48.64208984 12.11352539 C46.10172345 12.63772798 43.56392105 12.94322949 40.98974609 13.25805664 C38.4809049 13.88249597 38.4809049 13.88249597 37.509552 16.1438446 C36.39765305 19.95033335 36.37868322 23.5561575 36.41503906 27.48388672 C36.41474701 28.31367035 36.41445496 29.14345398 36.41415405 29.99838257 C36.41554323 32.73088168 36.43108501 35.46310538 36.44677734 38.19555664 C36.45050894 40.09412995 36.45335522 41.9927052 36.45535278 43.89128113 C36.4629777 48.88078151 36.48261642 53.87016489 36.50476074 58.85961914 C36.52524374 63.95400408 36.53435975 69.04840799 36.54443359 74.14282227 C36.56586336 84.13310796 36.59998557 94.12330693 36.64208984 104.11352539 C37.75583984 104.09290039 38.86958984 104.07227539 40.01708984 104.05102539 C43.64208984 104.11352539 43.64208984 104.11352539 45.64208984 105.11352539 C45.31208984 106.43352539 44.98208984 107.75352539 44.64208984 109.11352539 C41.67208984 109.60852539 41.67208984 109.60852539 38.64208984 110.11352539 C41.64987505 111.11612046 44.18029632 111.41667181 47.32958984 111.67602539 C48.82039063 111.80170898 48.82039063 111.80170898 50.34130859 111.92993164 C51.10056641 111.99051758 51.85982422 112.05110352 52.64208984 112.11352539 C52.64208984 113.43352539 52.64208984 114.75352539 52.64208984 116.11352539 C35.81208984 116.11352539 18.98208984 116.11352539 1.64208984 116.11352539 C1.64208984 114.79352539 1.64208984 113.47352539 1.64208984 112.11352539 C5.27208984 111.78352539 8.90208984 111.45352539 12.64208984 111.11352539 C12.64208984 110.45352539 12.64208984 109.79352539 12.64208984 109.11352539 C11.42650391 109.12512695 10.21091797 109.13672852 8.95849609 109.14868164 C7.37386221 109.15805817 5.78922667 109.16715852 4.20458984 109.17602539 C3.40214844 109.1844043 2.59970703 109.1927832 1.77294922 109.20141602 C-0.27086237 109.21003969 -2.31474917 109.16580689 -4.35791016 109.11352539 C-4.68791016 108.78352539 -5.01791016 108.45352539 -5.35791016 108.11352539 C-5.68791016 109.04165039 -6.01791016 109.96977539 -6.35791016 110.92602539 C-9.00860807 115.15057519 -11.62870658 116.01057355 -16.35791016 117.11352539 C-23.31743442 118.25342445 -30.18593318 118.33500233 -37.21606445 118.35375977 C-39.39069954 118.36339377 -41.56435824 118.39444424 -43.73876953 118.42602539 C-62.66753811 118.56982194 -82.14509223 114.04751422 -96.59619141 101.10961914 C-98.2356516 99.48330092 -99.82240464 97.8376937 -101.35791016 96.11352539 C-98.0135952 96.11352539 -96.34116147 97.1100797 -93.47485352 98.70532227 C-72.93050536 110.00609865 -50.58767774 111.10116579 -27.73291016 107.92602539 C-26.95737793 107.82547852 -26.1818457 107.72493164 -25.3828125 107.62133789 C-19.30561899 106.61276507 -16.50117717 104.03767263 -12.84619141 99.05102539 C-10.68531811 95.49025079 -8.7197843 92.07534107 -7.35791016 88.11352539 C-6.03791016 88.11352539 -4.71791016 88.11352539 -3.35791016 88.11352539 C-2.1795891 91.64848855 -2.58688362 93.53438264 -3.23291016 97.17602539 C-3.50748047 98.77124023 -3.50748047 98.77124023 -3.78759766 100.39868164 C-4.35791016 103.11352539 -4.35791016 103.11352539 -5.35791016 105.11352539 C-0.40791016 104.12352539 -0.40791016 104.12352539 4.64208984 103.11352539 C7.06903293 93.56754925 6.99157578 84.20179607 7.05615234 74.41821289 C7.07489053 72.6164565 7.09446587 70.81470863 7.11483765 69.01296997 C7.16588504 64.30148376 7.2056563 59.58996917 7.24298096 54.87835693 C7.28319357 50.05823915 7.33420666 45.23823656 7.38427734 40.41821289 C7.48071172 30.9833983 7.56521914 21.54851825 7.64208984 12.11352539 C5.66208984 12.11352539 3.68208984 12.11352539 1.64208984 12.11352539 C1.64208984 10.79352539 1.64208984 9.47352539 1.64208984 8.11352539 C2.96208984 8.11352539 4.28208984 8.11352539 5.64208984 8.11352539 C5.64208984 7.45352539 5.64208984 6.79352539 5.64208984 6.11352539 C1.68208984 5.45352539 -2.27791016 4.79352539 -6.35791016 4.11352539 C-6.35791016 3.12352539 -6.35791016 2.13352539 -6.35791016 1.11352539 C-4.00590956 -0.06247491 -2.62056615 -0.00732002 0 0 Z " fill="#CF4037" transform="translate(439.35791015625,323.886474609375)"/>
<path d="M0 0 C173.58 0 347.16 0 526 0 C526 2.64 526 5.28 526 8 C475.96224099 8.11245227 425.92447951 8.22371436 375.88670349 8.32835388 C375.14672934 8.32990168 374.40675519 8.33144947 373.64435757 8.33304417 C357.56469666 8.36667035 341.48503528 8.40007378 325.40537343 8.4332476 C317.52049301 8.44951619 309.63561269 8.46583402 301.75073242 8.48217773 C300.57373994 8.48461614 300.57373994 8.48461614 299.37296983 8.4871038 C273.91650327 8.53986565 248.46004513 8.59588265 223.00358931 8.65357857 C196.85488722 8.71282631 170.70618015 8.7688083 144.55746229 8.82065109 C140.86845174 8.8279665 137.17944126 8.83531945 133.49043083 8.84269524 C132.76434425 8.84414581 132.03825767 8.84559638 131.29016847 8.84709091 C119.57818085 8.87058578 107.86620362 8.8975475 96.15422659 8.92578938 C84.39427746 8.95407354 72.6343254 8.9786628 60.87436099 8.99967117 C54.49666368 9.01117421 48.11898072 9.02434592 41.74129677 9.04183006 C35.91303131 9.0577727 30.084776 9.06917726 24.25649392 9.07683109 C22.13804765 9.08043952 20.01960353 9.08577456 17.90116627 9.09292836 C15.04148508 9.10234349 12.18186196 9.1057082 9.3221674 9.10743046 C8.48251305 9.11166182 7.64285871 9.11589318 6.7777603 9.12025276 C1.1141458 9.1141458 1.1141458 9.1141458 0 8 C0 5.36 0 2.72 0 0 Z " fill="#CE4137" transform="translate(129,460)"/>
<path d="M0 0 C105.93 0 211.86 0 321 0 C321 2.64 321 5.28 321 8 C215.07 8.33 109.14 8.66 0 9 C0 6.03 0 3.06 0 0 Z " fill="#CE4137" transform="translate(334,161)"/>
<path d="M0 0 C40.26 0 80.52 0 122 0 C122 2.31 122 4.62 122 7 C124.31 7 126.62 7 129 7 C129 9.97 129 12.94 129 16 C113.24083256 16.02332931 97.48166976 16.04097933 81.72248936 16.05181217 C74.40572598 16.05697506 67.0889733 16.06401762 59.7722168 16.07543945 C53.39716982 16.08538651 47.02213059 16.09185348 40.64707607 16.09408849 C37.26951986 16.09539557 33.89198584 16.09848119 30.51443672 16.10573006 C26.74992657 16.11293613 22.98546315 16.11399113 19.22094727 16.11352539 C18.09310318 16.11712067 16.96525909 16.12071594 15.80323792 16.12442017 C14.27400696 16.12235817 14.27400696 16.12235817 12.71388245 16.12025452 C11.82250863 16.12117631 10.93113482 16.1220981 10.01274967 16.12304783 C8 16 8 16 7 15 C6.95919217 13.00041636 6.95745644 10.99954746 7 9 C4.69 9 2.38 9 0 9 C0 6.03 0 3.06 0 0 Z " fill="#CE4137" transform="translate(129,161)"/>
<path d="M0 0 C6.6 0 13.2 0 20 0 C20 1.32 20 2.64 20 4 C16.37 4.66 12.74 5.32 9 6 C8.42116921 17.66639924 7.94049574 29.31891266 7.82421875 41 C7.81230499 41.98798584 7.80039124 42.97597168 7.78811646 43.99389648 C7.73970339 48.01303889 7.69176051 52.03185714 7.67407227 56.05126953 C7.58589684 72.97823831 7.26370766 89.18469193 -5.03515625 102.14453125 C-16.62955306 113.16636525 -29.04101057 115.60228663 -44.48828125 115.24609375 C-55.49499558 114.78102131 -66.88222997 111.90435944 -75.015625 104.0546875 C-76.42047049 102.43320696 -77.72381705 100.72457156 -79 99 C-74.51371991 99.76907659 -70.67052502 101.29002687 -66.5 103.0625 C-60.24198606 105.40925523 -53.9716339 105.21770314 -47.375 105.25 C-45.83005859 105.2809375 -45.83005859 105.2809375 -44.25390625 105.3125 C-32.83737621 105.36994166 -22.75460457 103.06363249 -14.12890625 95.3203125 C-2.68946562 83.46265576 -1.71660152 67.45895763 -1.62109375 51.875 C-1.60488505 50.43675647 -1.58770163 48.99852363 -1.56959534 47.56030273 C-1.52428083 43.80638562 -1.48927008 40.0524536 -1.45739746 36.29840088 C-1.40514745 30.26288304 -1.34040318 24.22752063 -1.26918221 18.19219971 C-1.24637314 16.08827145 -1.23009883 13.98436331 -1.21446228 11.88037109 C-1.20097244 10.6114502 -1.1874826 9.3425293 -1.17358398 8.03515625 C-1.15931618 6.35498413 -1.15931618 6.35498413 -1.14476013 4.64086914 C-1 2 -1 2 0 0 Z " fill="#C69732" transform="translate(491,193)"/>
<path d="M0 0 C10.03046075 7.62315017 15.00683838 17.92042985 17.25 30.125 C19.66570926 47.85384932 14.81438535 63.50825683 4.875 78.125 C-5.19370367 89.18774766 -19.60976305 95.97307684 -34.47729492 97.20532227 C-37.07198286 97.3029007 -39.65355702 97.3292312 -42.25 97.3125 C-43.17095459 97.30686035 -44.09190918 97.3012207 -45.04077148 97.29541016 C-62.43658245 96.98719563 -75.66477455 91.2806448 -88 79 C-83.56746518 79 -80.52030803 81.28472823 -76.69140625 83.39453125 C-67.17624539 87.90870059 -57.24042012 88.47607127 -46.875 88.375 C-45.67746094 88.38660156 -44.47992188 88.39820313 -43.24609375 88.41015625 C-31.02805912 88.37000937 -21.21253794 85.81098337 -12.17578125 77.27734375 C-10.78377852 75.85163635 -9.39187946 74.42582774 -8 73 C-7.34 73 -6.68 73 -6 73 C-5.59394531 72.13955078 -5.59394531 72.13955078 -5.1796875 71.26171875 C-3.98075282 68.96309895 -2.61528199 66.93209796 -1.125 64.8125 C5.87812533 54.39321597 8.39543111 44.20378127 8.375 31.75 C8.37338867 30.73236572 8.37177734 29.71473145 8.37011719 28.66625977 C8.20244216 18.38794513 6.16519721 10.36705336 0 2 C0 1.34 0 0.68 0 0 Z " fill="#C69832" transform="translate(368,213)"/>
<path d="M0 0 C1.67545898 -0.05607422 1.67545898 -0.05607422 3.38476562 -0.11328125 C13.32184313 -0.21697249 21.90426544 2.19245779 29.6875 8.5625 C32.4375 11.375 32.4375 11.375 32.4375 13.375 C29.93063187 12.91473722 27.52555392 12.4033713 25.09765625 11.62109375 C11.82325109 7.48906087 -6.011533 6.81426725 -18.5625 13.375 C-27.95725093 18.81237297 -33.42555627 27.11156361 -36.5625 37.375 C-40.00791532 53.47657427 -37.43872324 69.02902195 -29.5625 83.375 C-36.07652713 80.81591791 -39.95400343 73.62865404 -42.93359375 67.6015625 C-48.33694396 54.41976309 -48.82241367 37.57800476 -43.890625 24.171875 C-39.26767314 14.43648226 -33.12256023 6.89896371 -22.9375 3.0625 C-15.24007609 0.44890477 -8.08116488 0.10016092 0 0 Z " fill="#C69732" transform="translate(387.5625,328.625)"/>
<path d="M0 0 C5.4623482 3.7456102 8.91772977 8.75318931 11 15 C12.34882376 25.91010613 9.11320436 33.50215259 2.6328125 42.1640625 C-2.45608108 48.45608108 -2.45608108 48.45608108 -5 51 C-4.93481462 53.04445069 -4.79678982 55.08673701 -4.625 57.125 C-4.47611328 58.89810547 -4.47611328 58.89810547 -4.32421875 60.70703125 C-4.09034429 63.0824068 -3.78588834 65.45120124 -3.4375 67.8125 C-2.91839388 71.59455887 -2.97253743 75.18270228 -3 79 C-7.62403938 80.02659155 -12.25043598 81.04147593 -16.87939453 82.0456543 C-18.45333756 82.38880954 -20.02659211 82.7351388 -21.59912109 83.0847168 C-23.86121346 83.58700705 -26.12554629 84.07778386 -28.390625 84.56640625 C-29.09181458 84.72468399 -29.79300415 84.88296173 -30.51544189 85.04603577 C-33.95791978 85.77698616 -36.65726832 86.29287268 -40 85 C-40.33 82.36 -40.66 79.72 -41 77 C-36.18619449 74.77361495 -31.17040214 73.88660042 -26 72.875 C-25.11054688 72.69324219 -24.22109375 72.51148438 -23.3046875 72.32421875 C-22.00917969 72.06705078 -22.00917969 72.06705078 -20.6875 71.8046875 C-19.90761719 71.64983887 -19.12773437 71.49499023 -18.32421875 71.33544922 C-15.85299568 70.9787832 -13.49340737 70.9431812 -11 71 C-11.495 70.01 -11.495 70.01 -12 69 C-12.39960732 66.12399406 -12.75085568 63.26059554 -13.0625 60.375 C-13.15337891 59.59253906 -13.24425781 58.81007812 -13.33789062 58.00390625 C-13.5951734 55.67095118 -13.80932645 53.33929352 -14 51 C-14.09945923 49.90727783 -14.09945923 49.90727783 -14.20092773 48.79248047 C-14.38542802 45.33744008 -14.27646926 43.39746375 -12.27734375 40.5234375 C-11.50519531 39.81445312 -10.73304688 39.10546875 -9.9375 38.375 C-3.50470499 31.75899247 2.32492708 23.23496165 2.5625 13.6875 C2.20024355 9.03982677 1.21599695 4.49484588 0 0 Z " fill="#C69732" transform="translate(331,108)"/>
<path d="M0 0 C2.32319342 1.89556136 4.07950658 3.68411088 6 6 C5.67 6.66 5.34 7.32 5 8 C4.07380859 7.49339844 4.07380859 7.49339844 3.12890625 6.9765625 C-6.97675304 1.65455624 -15.59166031 -0.26039365 -27 2 C-35.63217278 5.05509203 -42.17135924 9.15963494 -46.20703125 17.4921875 C-49.62716973 25.63767632 -50.20709289 32.86122307 -50.25 41.625 C-50.270625 42.65496094 -50.29125 43.68492187 -50.3125 44.74609375 C-50.35896164 53.9803443 -48.79222539 62.39675433 -44.3125 70.5625 C-42 74.8259587 -42 74.8259587 -42 77 C-48.8792107 74.24218725 -52.76756227 66.83339851 -55.59375 60.3359375 C-61.37440395 44.37192222 -62.85020773 26.12546606 -55.78125 10.265625 C-51.20143299 1.6657464 -44.89809175 -2.18647187 -35.875 -5.375 C-22.18613544 -9.11991638 -11.70611487 -7.66635758 0 0 Z " fill="#C69832" transform="translate(340,208)"/>
<path d="M0 0 C0 2.97 0 5.94 0 9 C-15.75916744 9.02332931 -31.51833024 9.04097933 -47.27751064 9.05181217 C-54.59427402 9.05697506 -61.9110267 9.06401762 -69.2277832 9.07543945 C-75.60283018 9.08538651 -81.97786941 9.09185348 -88.35292393 9.09408849 C-91.73048014 9.09539557 -95.10801416 9.09848119 -98.48556328 9.10573006 C-102.25007343 9.11293613 -106.01453685 9.11399113 -109.77905273 9.11352539 C-110.90689682 9.11712067 -112.03474091 9.12071594 -113.19676208 9.12442017 C-114.72599304 9.12235817 -114.72599304 9.12235817 -116.28611755 9.12025452 C-117.17749137 9.12117631 -118.06886518 9.1220981 -118.98725033 9.12304783 C-121 9 -121 9 -122 8 C-122.125 5 -122.125 5 -122 2 C-120.41601956 0.41601956 -118.79768754 0.85886119 -116.59896851 0.84178162 C-115.6484964 0.8319928 -114.69802429 0.82220398 -113.71875 0.81211853 C-112.1416626 0.80348534 -112.1416626 0.80348534 -110.53271484 0.79467773 C-109.43190582 0.78477814 -108.3310968 0.77487854 -107.19692993 0.76467896 C-103.53495475 0.73293573 -99.87296674 0.70824649 -96.2109375 0.68359375 C-93.67322448 0.66302563 -91.1355149 0.64202919 -88.59780884 0.62062073 C-82.58194766 0.57094301 -76.56606856 0.5257237 -70.55015814 0.48259836 C-63.73203536 0.43345667 -56.91396454 0.37838432 -50.09589076 0.32291877 C-39.47850691 0.23676359 -28.86110048 0.15376586 -18.24365234 0.07592773 C-17.20440613 0.06814804 -16.16515991 0.06036835 -15.09442139 0.05235291 C-10.06278619 0.01610548 -5.03176508 -0.00853623 0 0 Z " fill="#C69832" transform="translate(258,168)"/>
<path d="M0 0 C5.91630445 0.1155776 9.53046505 1.4760946 13.86987305 5.39160156 C15.10737305 6.47441406 15.10737305 6.47441406 16.36987305 7.57910156 C17.86987305 9.39160156 17.86987305 9.39160156 17.86987305 11.39160156 C17.00104492 11.17503906 16.1322168 10.95847656 15.23706055 10.73535156 C14.08463867 10.45691406 12.9322168 10.17847656 11.74487305 9.89160156 C10.60791992 9.61316406 9.4709668 9.33472656 8.29956055 9.04785156 C4.46967613 8.20366705 4.46967613 8.20366705 -1.13012695 8.39160156 C-1.13012695 37.76160156 -1.13012695 67.13160156 -1.13012695 97.39160156 C-6.13012695 96.39160156 -6.13012695 96.39160156 -8.13012695 94.39160156 C-10.83781872 84.07405323 -10.40804976 73.22982502 -10.3605957 62.65722656 C-10.35940095 60.88458286 -10.35895136 59.11193852 -10.35920715 57.33929443 C-10.35765507 53.65486597 -10.34945626 49.97053643 -10.3359375 46.28613281 C-10.3187988 41.55482512 -10.3151281 36.82362409 -10.31588268 32.09228897 C-10.31561171 28.44646175 -10.31014474 24.80065801 -10.30288124 21.15483856 C-10.29969456 19.40844652 -10.29772717 17.66205183 -10.29698753 15.91565704 C-10.29483244 13.4912504 -10.28611087 11.06696 -10.27539062 8.64257812 C-10.27584381 7.9185379 -10.276297 7.19449768 -10.27676392 6.44851685 C-10.22655175 -1.27135182 -7.10224762 0.05702596 0 0 Z " fill="#C69632" transform="translate(533.130126953125,331.6083984375)"/>
<path d="M0 0 C0.83265381 0.00523682 1.66530762 0.01047363 2.52319336 0.01586914 C3.42231445 0.0190918 4.32143555 0.02231445 5.24780273 0.02563477 C6.66609375 0.03820312 6.66609375 0.03820312 8.11303711 0.05102539 C9.06243164 0.05553711 10.01182617 0.06004883 10.98999023 0.06469727 C13.34356776 0.07652429 15.69702188 0.09300514 18.05053711 0.11352539 C18.05053711 1.43352539 18.05053711 2.75352539 18.05053711 4.11352539 C17.34026367 4.24629883 16.62999023 4.37907227 15.89819336 4.51586914 C14.9790918 4.6924707 14.05999023 4.86907227 13.11303711 5.05102539 C12.19651367 5.22504883 11.27999023 5.39907227 10.33569336 5.57836914 C8.09763867 5.89067528 8.09763867 5.89067528 7.05053711 7.11352539 C6.16854652 13.39189592 5.91041589 19.5240267 5.93701172 25.85595703 C5.93686569 26.78386047 5.93671967 27.71176392 5.93656921 28.66778564 C5.9372601 31.70310896 5.94501353 34.73836918 5.95288086 37.77368164 C5.95474797 39.89074164 5.95617049 42.00780208 5.95716858 44.12486267 C5.96097067 49.67321992 5.97078106 55.22155063 5.98187256 60.76989746 C5.99213649 66.44107708 5.99667684 72.11226102 6.00170898 77.78344727 C6.01240556 88.89348491 6.02945402 100.00350294 6.05053711 111.11352539 C1.26928711 111.27758789 1.26928711 111.27758789 -0.69946289 109.80102539 C-2.8493952 106.89861677 -3.07472372 104.29716949 -3.07644653 100.81124878 C-3.07926636 99.93349792 -3.08208618 99.05574707 -3.08499146 98.15139771 C-3.08296722 97.19127777 -3.08094299 96.23115784 -3.07885742 95.24194336 C-3.08060974 94.22874023 -3.08236206 93.21553711 -3.08416748 92.17163086 C-3.08857566 88.81630755 -3.08565205 85.46103676 -3.08227539 82.10571289 C-3.08294862 79.78069041 -3.08391881 77.45566799 -3.08517456 75.13064575 C-3.08665005 70.25660533 -3.08450136 65.38258322 -3.07983398 60.50854492 C-3.07413046 54.24567143 -3.0774206 47.98284073 -3.08340645 41.7199688 C-3.08701068 36.91948114 -3.08587422 32.11900373 -3.08327866 27.31851578 C-3.08260933 25.00832235 -3.083438 22.698128 -3.08575821 20.38793564 C-3.08828316 17.16737128 -3.08444666 13.94687743 -3.07885742 10.72631836 C-3.08088165 9.76214996 -3.08290588 8.79798157 -3.08499146 7.80459595 C-3.08076172 6.49642914 -3.08076172 6.49642914 -3.07644653 5.16183472 C-3.07606951 4.3997212 -3.07569248 3.63760769 -3.07530403 2.85239983 C-2.89360745 0.34171429 -2.50408218 0.1458232 0 0 Z " fill="#C69733" transform="translate(245.949462890625,192.886474609375)"/>
<path d="M0 0 C19.8 0 39.6 0 60 0 C60 2.64 60 5.28 60 8 C42.84 8 25.68 8 8 8 C8.33 26.48 8.66 44.96 9 64 C7.02 63.67 5.04 63.34 3 63 C-1.27748923 56.58376615 -0.13201469 48.16761539 -0.09765625 40.72265625 C-0.09664917 39.68782104 -0.09564209 38.65298584 -0.09460449 37.58679199 C-0.08939833 33.74534995 -0.07543717 29.90392379 -0.0625 26.0625 C-0.041875 17.461875 -0.02125 8.86125 0 0 Z " fill="#C69633" transform="translate(164,241)"/>
<path d="M0 0 C7.88340602 6.40668731 15.01698301 13.66942579 17 24 C17.88283414 34.55059166 16.61062526 43.77848988 10 52.3125 C1.93200012 60.74407928 -9.36942757 63.91225712 -20.671875 64.28051758 C-29.64712358 64.41864699 -41.12257199 64.48813963 -48 58 C-48.25 55.3125 -48.25 55.3125 -48 53 C-47.13810059 53.16081055 -46.27620117 53.32162109 -45.38818359 53.48730469 C-39.81537288 54.33057479 -34.25185124 54.22585042 -28.625 54.25 C-26.83449219 54.2809375 -26.83449219 54.2809375 -25.0078125 54.3125 C-14.51125347 54.35894495 -7.85331409 52.61466826 -0.05078125 45.32421875 C6.4720333 37.93169559 8.36716771 29.77112192 8.28515625 20.17578125 C7.64234114 13.01675813 4.6929848 7.3634112 0 2 C0 1.34 0 0.68 0 0 Z " fill="#C69832" transform="translate(562,244)"/>
<path d="M0 0 C0.99 0 1.98 0 3 0 C4.00652823 4.66143926 3.88877779 8.48036201 3.1875 13.1875 C3.01605469 14.39792969 2.84460938 15.60835938 2.66796875 16.85546875 C2 20 2 20 0 23 C-2.69837632 23.30766518 -5.1691278 23.4198101 -7.87109375 23.40405273 C-8.68437637 23.41091599 -9.497659 23.41777924 -10.33558655 23.42485046 C-13.03639999 23.44321524 -15.73663721 23.439264 -18.4375 23.43359375 C-20.31640818 23.43815419 -22.19531468 23.44345936 -24.07421875 23.44947815 C-28.02204131 23.45843065 -31.96966187 23.45596572 -35.91748047 23.44604492 C-40.95673315 23.43461116 -45.99527926 23.45466936 -51.03443909 23.48396206 C-54.92088199 23.50239629 -58.80715833 23.50201626 -62.69363403 23.49632454 C-64.54982487 23.49617189 -66.4060274 23.50216928 -68.26217651 23.51461601 C-90.93339624 23.64510041 -90.93339624 23.64510041 -100.125 14.75 C-101.24261719 13.69039063 -101.24261719 13.69039063 -102.3828125 12.609375 C-102.91648438 12.07828125 -103.45015625 11.5471875 -104 11 C-103.01 10.67 -102.02 10.34 -101 10 C-99.30712215 10.95495674 -97.64142963 11.9590934 -96 13 C-93.15924639 13.88476448 -90.51661248 14.15267431 -87.55078125 14.24609375 C-86.70193359 14.27896484 -85.85308594 14.31183594 -84.97851562 14.34570312 C-83.22081137 14.40622481 -81.46299518 14.46358966 -79.70507812 14.51757812 C-73.90680792 14.74915938 -68.63231227 15.59049531 -63 17 C-62.67 16.34 -62.34 15.68 -62 15 C-61.33458694 15.00079559 -60.66917389 15.00159119 -59.9835968 15.00241089 C-53.05638206 15.00484905 -46.13028839 14.96567156 -39.20336914 14.90234375 C-36.61846119 14.88417787 -34.03345604 14.87661628 -31.44848633 14.87988281 C-27.73181873 14.88273794 -24.01716953 14.84743836 -20.30078125 14.8046875 C-19.14540359 14.81378143 -17.99002594 14.82287537 -16.79963684 14.83224487 C-11.1652305 14.88862846 -11.1652305 14.88862846 -6.16874695 12.69302368 C-3.86742911 10.00202189 -2.28560488 6.97710962 -1.1875 3.625 C-0.795625 2.42875 -0.40375 1.2325 0 0 Z " fill="#C69832" transform="translate(320,417)"/>
<path d="M0 0 C6.6 0 13.2 0 20 0 C20.33 0.66 20.66 1.32 21 2 C20.67 2.66 20.34 3.32 20 4 C17.45963361 4.52420259 14.92183121 4.8297041 12.34765625 5.14453125 C9.84003743 5.76892945 9.84003743 5.76892945 8.86746216 8.02458191 C7.74885174 11.86144517 7.73674244 15.50344923 7.77294922 19.4621582 C7.77265717 20.3016954 7.77236511 21.1412326 7.77206421 22.00621033 C7.77345353 24.77117376 7.78899598 27.5358651 7.8046875 30.30078125 C7.80841904 32.22177483 7.81126535 34.14277031 7.81326294 36.06376648 C7.82088825 41.11244997 7.84052731 46.16101785 7.8626709 51.20965576 C7.88315305 56.36436397 7.89226973 61.51909092 7.90234375 66.67382812 C7.92377421 76.7826028 7.95789689 86.89129177 8 97 C3.21875 97.1328125 3.21875 97.1328125 1.25 95.9375 C-1.87480891 91.09404619 -1.14445032 84.16184778 -1.12939453 78.54199219 C-1.13114685 77.72648895 -1.13289917 76.91098572 -1.13470459 76.07077026 C-1.13907838 73.39611638 -1.13620205 70.72152947 -1.1328125 68.046875 C-1.13348656 66.18076566 -1.13445745 64.3146564 -1.13571167 62.44854736 C-1.13718235 58.54837198 -1.13505335 54.64821958 -1.13037109 50.74804688 C-1.12465832 45.74548909 -1.12796656 40.74298478 -1.13394356 35.74042892 C-1.13755265 31.89206538 -1.13640925 28.04371457 -1.13381577 24.19535065 C-1.13314828 22.35013065 -1.1339687 20.50490951 -1.13629532 18.65969086 C-1.13882924 16.08657246 -1.13497146 13.51354155 -1.12939453 10.94042969 C-1.13141876 10.17675079 -1.13344299 9.4130719 -1.13552856 8.62625122 C-1.12286651 5.47941317 -1.00288054 3.00864161 0 0 Z " fill="#C69732" transform="translate(468,332)"/>
<path d="M0 0 C1.32 0 2.64 0 4 0 C5.5047958 4.51438739 4.18451756 8.35252324 3.25 12.9375 C3.07984375 13.84435547 2.9096875 14.75121094 2.734375 15.68554688 C2.5590625 16.56146484 2.38375 17.43738281 2.203125 18.33984375 C2.04489258 19.13769287 1.88666016 19.93554199 1.72363281 20.75756836 C0.85344873 23.45414084 0.00777113 24.98437331 -2 27 C-11.03069443 30.36347292 -20.86658403 30.47707443 -30.38623047 30.39111328 C-32.49902851 30.37500741 -34.60991492 30.39107847 -36.72265625 30.41015625 C-56.42924185 30.44108988 -76.83115954 25.30375957 -91.1875 11.0625 C-92.13596219 10.05184357 -93.07821315 9.03504394 -94 8 C-90.65568504 8 -88.98325132 8.99655431 -86.11694336 10.59179688 C-65.5725952 21.89257326 -43.22976759 22.98764039 -20.375 19.8125 C-19.59946777 19.71195312 -18.82393555 19.61140625 -18.02490234 19.5078125 C-11.94770883 18.49923967 -9.14326701 15.92414724 -5.48828125 10.9375 C-3.32740795 7.3767254 -1.36187414 3.96181568 0 0 Z " fill="#C79832" transform="translate(432,412)"/>
<path d="M0 0 C6.6 0 13.2 0 20 0 C20.33 0.99 20.66 1.98 21 3 C17.01613614 4.17172466 13.07729712 5.218342 9 6 C8.14865388 19.66714579 7.89005959 33.31032151 7.875 47 C7.87250244 47.7861972 7.87000488 48.57239441 7.86743164 49.38241577 C7.66265886 68.03381122 7.66265886 68.03381122 10.5625 86.375 C10.83191406 87.45523438 11.10132813 88.53546875 11.37890625 89.6484375 C11.58386719 90.42445313 11.78882813 91.20046875 12 92 C7.10432538 89.92115727 5.31344781 86.64237019 3 82 C-1.07073794 71.41273094 -1.15014708 60.93289222 -1.1328125 49.7265625 C-1.13348716 48.35273217 -1.13445853 46.97890195 -1.13571167 45.60507202 C-1.13717805 42.7423996 -1.13506638 39.87975859 -1.13037109 37.01708984 C-1.1246419 33.34508615 -1.12797951 29.67315505 -1.13394356 26.00115395 C-1.13755028 23.1719406 -1.13641063 20.34274459 -1.13381577 17.51353073 C-1.13314848 16.15871548 -1.13396801 14.80389865 -1.13629532 13.44908524 C-1.13882711 11.56322509 -1.13428588 9.67735941 -1.12939453 7.79150391 C-1.12859894 6.71865143 -1.12780334 5.64579895 -1.12698364 4.54043579 C-1 2 -1 2 0 0 Z " fill="#C69632" transform="translate(417,193)"/>
<path d="M0 0 C1.32 0 2.64 0 4 0 C4.52427184 17.21359223 4.52427184 17.21359223 0 24 C-2.66918945 24.43237305 -2.66918945 24.43237305 -6.11328125 24.51171875 C-8.05448853 24.56513428 -8.05448853 24.56513428 -10.03491211 24.61962891 C-11.46076376 24.64293421 -12.886627 24.66553971 -14.3125 24.6875 C-15.77418651 24.71979816 -17.23585652 24.75285106 -18.69750977 24.78662109 C-30.27539343 25.0329441 -41.85728691 25.09835655 -53.4375 25.125 C-54.25562164 25.12776947 -55.07374329 25.13053894 -55.91665649 25.13339233 C-58.23485015 25.13914555 -60.55290013 25.13743513 -62.87109375 25.1328125 C-63.91259079 25.13576576 -63.91259079 25.13576576 -64.97512817 25.13877869 C-69.76918312 25.11540844 -69.76918312 25.11540844 -72 24 C-72 22.68 -72 21.36 -72 20 C-68.7 19.67 -65.4 19.34 -62 19 C-61.67 18.01 -61.34 17.02 -61 16 C-60.02067253 16.00119339 -60.02067253 16.00119339 -59.02156067 16.00241089 C-52.22409773 16.00484925 -45.42777708 15.96566725 -38.63061523 15.90234375 C-36.09421089 15.88417908 -33.55770751 15.87661606 -31.02124023 15.87988281 C-27.37405701 15.88273831 -23.7289299 15.84743533 -20.08203125 15.8046875 C-18.94852737 15.81378143 -17.8150235 15.82287537 -16.64717102 15.83224487 C-11.09826042 15.87858156 -11.09826042 15.87858156 -6.18217468 13.70071411 C-3.73195889 10.84582002 -2.22145694 7.71663991 -1.1875 4.125 C-0.95417969 3.34382813 -0.72085938 2.56265625 -0.48046875 1.7578125 C-0.24263672 0.88769531 -0.24263672 0.88769531 0 0 Z " fill="#C69732" transform="translate(658,292)"/>
<path d="M0 0 C1.32 0.33 2.64 0.66 4 1 C4.58874806 16.60182365 4.58874806 16.60182365 0.37823486 22.12884521 C-2.83147481 24.65419026 -4.82259796 24.48329066 -8.87988281 24.45410156 C-9.90488388 24.45497772 -9.90488388 24.45497772 -10.95059204 24.45587158 C-13.20195899 24.453092 -15.45199032 24.42200908 -17.703125 24.390625 C-19.266818 24.38316209 -20.83052037 24.37746939 -22.39422607 24.37347412 C-26.50441433 24.35822154 -30.61403471 24.3189436 -34.72399902 24.2746582 C-38.92008787 24.23369701 -43.11626873 24.21546133 -47.3125 24.1953125 C-55.5419269 24.15244842 -63.77089275 24.08420233 -72 24 C-72.66 22.68 -73.32 21.36 -74 20 C-71.9284539 17.9284539 -68.04926442 18.00895717 -65.25 17.5 C-63.04154394 17.22050243 -63.04154394 17.22050243 -62 16 C-60.40512925 15.90327295 -58.80605299 15.87484273 -57.20825195 15.87402344 C-55.67579582 15.86831329 -55.67579582 15.86831329 -54.11238098 15.86248779 C-52.44220161 15.86094696 -52.44220161 15.86094696 -50.73828125 15.859375 C-48.39907884 15.84104284 -46.05988586 15.82147215 -43.72070312 15.80078125 C-40.01847513 15.771825 -36.31685048 15.75000057 -32.61450195 15.74951172 C-29.05104541 15.74617626 -25.48899394 15.71160941 -21.92578125 15.671875 C-20.27078362 15.68247955 -20.27078362 15.68247955 -18.58235168 15.69329834 C-11.9962579 15.64760009 -11.9962579 15.64760009 -6.34594727 12.62524414 C-3.9968464 9.99647095 -2.77285237 7.99861261 -1.625 4.6875 C-1.14933594 3.36298828 -1.14933594 3.36298828 -0.6640625 2.01171875 C-0.44492187 1.34785156 -0.22578125 0.68398438 0 0 Z " fill="#C69833" transform="translate(653,417)"/>
<path d="M0 0 C6.16112265 4.25740498 9.10373359 8.75355335 11 16 C12.32993368 24.00982783 9.47818869 32.02333618 5.25 38.75 C-1.11075412 47.61129628 -8.9735947 52.14890087 -19.625 54.25 C-30.16054313 55.91972843 -30.16054313 55.91972843 -34 54 C-34 52.68 -34 51.36 -34 50 C-32.91332031 49.85304688 -32.91332031 49.85304688 -31.8046875 49.703125 C-30.83789062 49.55359375 -29.87109375 49.4040625 -28.875 49.25 C-27.92367187 49.11078125 -26.97234375 48.9715625 -25.9921875 48.828125 C-16.97365117 46.33213322 -6.97836622 36.79814192 -2.08203125 28.91015625 C2.5122096 18.87288519 2.74647858 10.59356024 0 0 Z " fill="#C69832" transform="translate(571,338)"/>
<path d="M0 0 C3.89569135 -0.08732726 7.79112982 -0.14050185 11.6875 -0.1875 C12.79029297 -0.21263672 13.89308594 -0.23777344 15.02929688 -0.26367188 C16.09599609 -0.27333984 17.16269531 -0.28300781 18.26171875 -0.29296875 C19.24100342 -0.3086792 20.22028809 -0.32438965 21.22924805 -0.34057617 C25.43918614 0.17690234 28.04545791 2.04545791 31 5 C31 5.99 31 6.98 31 8 C23.41 8 15.82 8 8 8 C8 24.17 8 40.34 8 57 C3 56 3 56 1.20878601 54.26422119 C-0.23864577 51.55298389 -0.36289249 49.83723465 -0.34057617 46.77246094 C-0.34034958 45.73168396 -0.34012299 44.69090698 -0.33988953 43.61859131 C-0.32440567 42.50179993 -0.30892181 41.38500854 -0.29296875 40.234375 C-0.28872391 39.08584045 -0.28447906 37.93730591 -0.28010559 36.75396729 C-0.26331333 33.0857397 -0.22565898 29.41806153 -0.1875 25.75 C-0.17245392 23.26302877 -0.15876539 20.77604892 -0.14648438 18.2890625 C-0.11340796 12.19252088 -0.06320256 6.09629969 0 0 Z " fill="#C59833" transform="translate(612,242)"/>
<path d="M0 0 C4.58312084 -0.11605098 9.16586449 -0.18720362 13.75 -0.25 C15.05195313 -0.28351563 16.35390625 -0.31703125 17.6953125 -0.3515625 C18.94570313 -0.36445313 20.19609375 -0.37734375 21.484375 -0.390625 C22.63647461 -0.41157227 23.78857422 -0.43251953 24.97558594 -0.45410156 C28 0 28 0 30.40722656 1.77441406 C32 4 32 4 32 8 C24.41 8 16.82 8 9 8 C9 20.21 9 32.42 9 45 C4 44 4 44 2.25 42.125 C-0.34505455 37.71340727 -0.12987801 33.56923927 -0.09765625 28.61328125 C-0.0962413 27.79627243 -0.09482635 26.97926361 -0.09336853 26.13749695 C-0.08777294 23.52912732 -0.07522129 20.92084366 -0.0625 18.3125 C-0.05748443 16.54362103 -0.05292162 14.77474072 -0.04882812 13.00585938 C-0.03780496 8.67053981 -0.02054338 4.33528448 0 0 Z " fill="#C59734" transform="translate(272,379)"/>
<path d="M0 0 C5.88036318 2.50742759 8.95861087 7.60027722 11.4375 13.3125 C12.83968021 22.50457027 11.15060214 30.26194915 6 38 C1.79282629 43.28183221 -2.64988893 47.87438618 -8 52 C-7.28714844 52.7734375 -6.57429687 53.546875 -5.83984375 54.34375 C-3.3564484 57.04150797 -0.8819747 59.74728652 1.58886719 62.45654297 C2.8171195 63.79997049 4.05247926 65.13689312 5.2890625 66.47265625 C5.91554687 67.16230469 6.54203125 67.85195313 7.1875 68.5625 C8.01314453 69.46162109 8.01314453 69.46162109 8.85546875 70.37890625 C10 72 10 72 10 75 C0.96847537 66.1320241 -7.16395523 56.93244116 -15 47 C-13.66755645 44.1591298 -12.16070533 41.73597145 -10.25 39.25 C-9.72277344 38.55261719 -9.19554687 37.85523438 -8.65234375 37.13671875 C-7.57978626 35.74974724 -6.48945505 34.37627401 -5.37890625 33.01953125 C0.76562321 25.34270018 2.95833118 17.81896704 2 8 C1.47980219 5.25673464 0.79488529 2.68273786 0 0 Z " fill="#C69732" transform="translate(216,338)"/>
<path d="M0 0 C6.2184375 -0.0928125 6.2184375 -0.0928125 12.5625 -0.1875 C13.85615479 -0.21481201 15.14980957 -0.24212402 16.48266602 -0.27026367 C28.09894525 -0.35409342 28.09894525 -0.35409342 33 3 C33.495 5.97 33.495 5.97 34 9 C25.75 8.67 17.5 8.34 9 8 C9 17.9 9 27.8 9 38 C6.03 38 3.06 38 0 38 C0 25.46 0 12.92 0 0 Z " fill="#C69632" transform="translate(272,333)"/>
<path d="M0 0 C3.980625 -0.061875 7.96125 -0.12375 12.0625 -0.1875 C13.92467163 -0.22846802 13.92467163 -0.22846802 15.82446289 -0.27026367 C21.97468089 -0.31645363 26.65435986 -0.18069295 32 3 C34 6 34 6 34 9 C21.13 8.505 21.13 8.505 8 8 C8 19.22 8 30.44 8 42 C5.36 42 2.72 42 0 42 C0 28.14 0 14.28 0 0 Z " fill="#C69832" transform="translate(606,329)"/>
<path d="M0 0 C4.23016463 0.05192034 8.45829473 0.14701247 12.6875 0.25 C13.88568359 0.26417969 15.08386719 0.27835937 16.31835938 0.29296875 C18.05375977 0.34130859 18.05375977 0.34130859 19.82421875 0.390625 C21.41882935 0.4220459 21.41882935 0.4220459 23.0456543 0.45410156 C26.71440087 1.13200565 28.43488666 2.31609575 31 5 C31 6.32 31 7.64 31 9 C23.74 9 16.48 9 9 9 C8.67 21.21 8.34 33.42 8 46 C3 45 3 45 1.20581055 43.52246094 C-0.65740267 39.62476525 -0.36830777 35.90380888 -0.29296875 31.640625 C-0.28872391 30.73624695 -0.28447906 29.8318689 -0.28010559 28.90008545 C-0.26333574 26.01641861 -0.22568669 23.133455 -0.1875 20.25 C-0.17245097 18.29297886 -0.15876295 16.33594674 -0.14648438 14.37890625 C-0.11343774 9.58566725 -0.06166705 4.79295279 0 0 Z " fill="#C69732" transform="translate(606,378)"/>
<path d="M0 0 C19 0 19 0 27.625 7.1875 C29 9 29 9 29 11 C27.9275 10.67 26.855 10.34 25.75 10 C19.85192076 8.58797904 19.85192076 8.58797904 9 9 C8.67 21.87 8.34 34.74 8 48 C5.36 48 2.72 48 0 48 C0 32.16 0 16.32 0 0 Z " fill="#C69733" transform="translate(168,332)"/>
<path d="M0 0 C3.279375 -0.04125 6.55875 -0.0825 9.9375 -0.125 C10.95191162 -0.14320801 11.96632324 -0.16141602 13.01147461 -0.18017578 C27.00686018 -0.26437897 27.00686018 -0.26437897 31.74975586 3.32373047 C33 5 33 5 33 9 C30.8959118 9.02764495 28.79171032 9.04667887 26.6875 9.0625 C25.51574219 9.07410156 24.34398437 9.08570313 23.13671875 9.09765625 C18.07930598 8.97826501 13.03804628 8.45800421 8 8 C8 18.56 8 29.12 8 40 C5.36 40 2.72 40 0 40 C0 26.8 0 13.6 0 0 Z " fill="#C59833" transform="translate(612,194)"/>
<path d="M0 0 C3.68585087 2.82320492 5.87178553 5.4871421 7 10 C7.57669366 14.78212126 7.49722076 18.04107425 5.25 22.375 C2.12864876 26.01657645 0.37394423 27.63707134 -4.3125 28.875 C-8.82279093 29.02789122 -11.1370266 28.3323613 -15 26 C-18.7777953 21.25353924 -19.64218515 17.40260479 -19.39453125 11.3671875 C-18.61295146 6.67770876 -15.60505085 2.97808548 -12 0 C-7.81504098 -1.39498634 -4.25654139 -1.09218813 0 0 Z M-8 3 C-8.66 3.66 -9.32 4.32 -10 5 C-8.329375 5.185625 -8.329375 5.185625 -6.625 5.375 C-3 6 -3 6 -1 8 C-0.96745228 9.98541074 -0.94186051 11.97209449 -0.99609375 13.95703125 C-1.00076831 16.40182545 -0.59181137 18.63275454 0 21 C1.66641006 20.009245 1.66641006 20.009245 3 18 C3.60857125 13.35964422 3.72922743 10.3742747 0.875 6.5625 C-2.26446171 3.76428413 -3.82707905 3 -8 3 Z M-14 8 C-15.91903365 10.8221083 -15.99110212 12.12901932 -15.75 15.625 C-15.30518815 19.05272884 -15.30518815 19.05272884 -13 21 C-13 16.71 -13 12.42 -13 8 C-13.33 8 -13.66 8 -14 8 Z M-7 10 C-7 10.66 -7 11.32 -7 12 C-6.34 12 -5.68 12 -5 12 C-5 11.34 -5 10.68 -5 10 C-5.66 10 -6.32 10 -7 10 Z M-7 17 C-7 18.98 -7 20.96 -7 23 C-7.99 23.33 -8.98 23.66 -10 24 C-7.64632287 24.6878236 -7.64632287 24.6878236 -5 25 C-4.01 24.34 -3.02 23.68 -2 23 C-2.66 22.67 -3.32 22.34 -4 22 C-4.625 19.4375 -4.625 19.4375 -5 17 C-5.66 17 -6.32 17 -7 17 Z " fill="#D13E34" transform="translate(678,416)"/>
<path d="M0 0 C2.73156959 -0.16262928 5.45342122 -0.28110686 8.1875 -0.375 C8.95642578 -0.42527344 9.72535156 -0.47554688 10.51757812 -0.52734375 C16.13326602 -0.67195374 16.13326602 -0.67195374 18.66650391 1.29199219 C22 5.16049383 22 5.16049383 22 8 C17.38 8 12.76 8 8 8 C8.33 18.56 8.66 29.12 9 40 C4 41 4 41 2.25 39.875 C-0.62580103 35.56129845 -0.1347663 30.29746693 -0.09765625 25.29296875 C-0.0962413 24.56757401 -0.09482635 23.84217926 -0.09336853 23.09480286 C-0.08779931 20.7923255 -0.07525261 18.48994765 -0.0625 16.1875 C-0.05748102 14.62044412 -0.05291881 13.0533867 -0.04882812 11.48632812 C-0.03783998 7.65751411 -0.02059673 3.82877389 0 0 Z " fill="#C69732" transform="translate(168,388)"/>
<path d="M0 0 C2.53366662 1.70926317 4.1765769 3.64318687 5.80078125 6.21484375 C5.80078125 6.87484375 5.80078125 7.53484375 5.80078125 8.21484375 C4.65802734 7.96347656 4.65802734 7.96347656 3.4921875 7.70703125 C-4.65152185 6.10065662 -11.09286625 5.47727541 -18.19921875 10.21484375 C-21.16975755 13.18538255 -21.35602945 14.93339078 -21.38671875 19.02734375 C-21.35901804 22.85558172 -21.03356594 25.77544276 -19.19921875 29.21484375 C-22.3188583 27.85465384 -24.20756697 26.38224241 -26.38671875 23.77734375 C-26.89589844 23.18050781 -27.40507813 22.58367187 -27.9296875 21.96875 C-30.7709326 18.04346061 -30.72193922 13.62228345 -30.66015625 8.9453125 C-30.14456924 5.89111488 -29.56610761 4.80411576 -27.32421875 2.71484375 C-19.06845567 -3.06753282 -8.97566388 -4.89740107 0 0 Z " fill="#C79832" transform="translate(556.19921875,193.78515625)"/>
<path d="M0 0 C6.6 0 13.2 0 20 0 C20 1.32 20 2.64 20 4 C18.95199219 4.12955078 18.95199219 4.12955078 17.8828125 4.26171875 C16.97273438 4.40222656 16.06265625 4.54273438 15.125 4.6875 C13.76761719 4.87892578 13.76761719 4.87892578 12.3828125 5.07421875 C9.82444978 5.76847252 9.82444978 5.76847252 8.87695312 8.13085938 C7.85953236 11.45957006 7.67790297 14.35267086 7.5859375 17.83203125 C7.52792969 19.77045898 7.52792969 19.77045898 7.46875 21.74804688 C7.43729986 23.10285995 7.40605239 24.45767775 7.375 25.8125 C7.3367825 27.18687272 7.2977286 28.56122244 7.2578125 29.93554688 C7.16364596 33.29022989 7.078018 36.64490893 7 40 C4.36 40 1.72 40 -1 40 C-1.02467759 34.62484067 -1.04284928 29.24971415 -1.05493164 23.87451172 C-1.05996737 22.04507879 -1.06679627 20.21564991 -1.07543945 18.38623047 C-1.08753824 15.76008102 -1.09323583 13.13398468 -1.09765625 10.5078125 C-1.10281754 9.68693146 -1.10797882 8.86605042 -1.11329651 8.02029419 C-1.11387171 2.22774341 -1.11387171 2.22774341 0 0 Z " fill="#C69633" transform="translate(165,193)"/>
<path d="M0 0 C2.2590332 -0.38818359 2.2590332 -0.38818359 5.05078125 -0.3984375 C6.05947266 -0.40230469 7.06816406 -0.40617187 8.10742188 -0.41015625 C9.69393555 -0.39275391 9.69393555 -0.39275391 11.3125 -0.375 C12.35857422 -0.38660156 13.40464844 -0.39820313 14.48242188 -0.41015625 C16.00125977 -0.40435547 16.00125977 -0.40435547 17.55078125 -0.3984375 C18.47544189 -0.39505371 19.40010254 -0.39166992 20.3527832 -0.38818359 C23.49008504 0.07186528 25.36006577 1.28999853 28 3 C30.65533053 3.56424481 30.65533053 3.56424481 33.3125 3.6875 C34.63701172 3.78611328 34.63701172 3.78611328 35.98828125 3.88671875 C36.65214844 3.92410156 37.31601563 3.96148437 38 4 C38.5625 5.9375 38.5625 5.9375 39 8 C37.401833 9.598167 35.72473502 9.12730981 33.51196289 9.12939453 C32.08026512 9.13412277 32.08026512 9.13412277 30.61964417 9.13894653 C29.58113815 9.1369223 28.54263214 9.13489807 27.47265625 9.1328125 C25.88377846 9.13424759 25.88377846 9.13424759 24.26280212 9.13571167 C22.01740459 9.1363937 19.7720051 9.13453784 17.52661133 9.13037109 C14.080847 9.12502845 10.63521334 9.13031262 7.18945312 9.13671875 C5.01302054 9.13605787 2.83658805 9.1347765 0.66015625 9.1328125 C-0.37632553 9.13483673 -1.41280731 9.13686096 -2.48069763 9.13894653 C-3.43831497 9.13579437 -4.39593231 9.13264221 -5.38256836 9.12939453 C-6.22782578 9.12859894 -7.07308319 9.12780334 -7.94395447 9.12698364 C-10 9 -10 9 -12 8 C-11.67 6.68 -11.34 5.36 -11 4 C-10.37351563 3.96261719 -9.74703125 3.92523438 -9.1015625 3.88671875 C-8.28429687 3.82097656 -7.46703125 3.75523437 -6.625 3.6875 C-5.81289062 3.62949219 -5.00078125 3.57148438 -4.1640625 3.51171875 C-1.62078662 3.17009472 -1.62078662 3.17009472 0 0 Z " fill="#C69831" transform="translate(150,308)"/>
<path d="M0 0 C8.25 0 16.5 0 25 0 C25 0.66 25 1.32 25 2 C29.62 2.66 34.24 3.32 39 4 C39 5.32 39 6.64 39 8 C22.83 8 6.66 8 -10 8 C-10.33 6.68 -10.66 5.36 -11 4 C-10.28972656 3.87882812 -9.57945312 3.75765625 -8.84765625 3.6328125 C-7.92855469 3.46523438 -7.00945312 3.29765625 -6.0625 3.125 C-5.14597656 2.96257812 -4.22945312 2.80015625 -3.28515625 2.6328125 C-2.53105469 2.42398437 -1.77695313 2.21515625 -1 2 C-0.67 1.34 -0.34 0.68 0 0 Z " fill="#C69932" transform="translate(228,308)"/>
<path d="M0 0 C3.72901814 -0.08736736 7.45777165 -0.14051482 11.1875 -0.1875 C12.24259766 -0.21263672 13.29769531 -0.23777344 14.38476562 -0.26367188 C15.91713867 -0.27817383 15.91713867 -0.27817383 17.48046875 -0.29296875 C18.41785889 -0.3086792 19.35524902 -0.32438965 20.32104492 -0.34057617 C23.50674655 0.06442281 25.32875239 1.26904941 28 3 C30.88528514 3.56707759 30.88528514 3.56707759 33.8125 3.6875 C35.27623047 3.78611328 35.27623047 3.78611328 36.76953125 3.88671875 C37.87361328 3.94279297 37.87361328 3.94279297 39 4 C39 5.32 39 6.64 39 8 C22.17 8 5.34 8 -12 8 C-12 6.68 -12 5.36 -12 4 C-6.555 3.505 -6.555 3.505 -1 3 C-0.67 2.01 -0.34 1.02 0 0 Z " fill="#C69832" transform="translate(453,432)"/>
<path d="M0 0 C1.5149707 -0.00580078 1.5149707 -0.00580078 3.06054688 -0.01171875 C4.64125977 0.00568359 4.64125977 0.00568359 6.25390625 0.0234375 C7.30384766 0.01183594 8.35378906 0.00023437 9.43554688 -0.01171875 C10.44681641 -0.00785156 11.45808594 -0.00398438 12.5 0 C13.88529907 0.00507568 13.88529907 0.00507568 15.29858398 0.01025391 C18.25402926 0.46590774 19.53317802 1.53089174 21.81640625 3.3984375 C24.62524262 3.97073618 24.62524262 3.97073618 27.56640625 4.0859375 C29.04367187 4.18455078 29.04367187 4.18455078 30.55078125 4.28515625 C31.2984375 4.32253906 32.04609375 4.35992187 32.81640625 4.3984375 C32.81640625 5.7184375 32.81640625 7.0384375 32.81640625 8.3984375 C16.31640625 8.3984375 -0.18359375 8.3984375 -17.18359375 8.3984375 C-17.18359375 7.0784375 -17.18359375 5.7584375 -17.18359375 4.3984375 C-16.56871094 4.36105469 -15.95382812 4.32367188 -15.3203125 4.28515625 C-14.51207031 4.21941406 -13.70382812 4.15367187 -12.87109375 4.0859375 C-12.07058594 4.02792969 -11.27007812 3.96992188 -10.4453125 3.91015625 C-8.11255806 3.61579895 -8.11255806 3.61579895 -6.86621094 1.89135742 C-4.55510279 -0.15919776 -3.05704976 0.01121461 0 0 Z " fill="#C69832" transform="translate(515.18359375,431.6015625)"/>
<path d="M0 0 C1.44729492 -0.00580078 1.44729492 -0.00580078 2.92382812 -0.01171875 C4.43299805 0.00568359 4.43299805 0.00568359 5.97265625 0.0234375 C6.97490234 0.01183594 7.97714844 0.00023437 9.00976562 -0.01171875 C9.97591797 -0.00785156 10.94207031 -0.00398438 11.9375 0 C13.25995728 0.00507568 13.25995728 0.00507568 14.60913086 0.01025391 C17.49755707 0.47242535 18.79310259 1.57807748 21.03515625 3.3984375 C23.84399262 3.97073618 23.84399262 3.97073618 26.78515625 4.0859375 C28.26242188 4.18455078 28.26242188 4.18455078 29.76953125 4.28515625 C30.5171875 4.32253906 31.26484375 4.35992187 32.03515625 4.3984375 C32.03515625 5.7184375 32.03515625 7.0384375 32.03515625 8.3984375 C15.86515625 8.3984375 -0.30484375 8.3984375 -16.96484375 8.3984375 C-16.96484375 7.0784375 -16.96484375 5.7584375 -16.96484375 4.3984375 C-16.34996094 4.36105469 -15.73507813 4.32367188 -15.1015625 4.28515625 C-14.29332031 4.21941406 -13.48507813 4.15367187 -12.65234375 4.0859375 C-11.85183594 4.02792969 -11.05132812 3.96992188 -10.2265625 3.91015625 C-7.8938274 3.6141611 -7.8938274 3.6141611 -6.63378906 1.89135742 C-4.37977449 -0.1249239 -2.99218547 0.01149893 0 0 Z " fill="#C69832" transform="translate(159.96484375,431.6015625)"/>
<path d="M0 0 C5.625 -0.25 5.625 -0.25 9 2 C9.28051758 4.56616211 9.28051758 4.56616211 9.14453125 7.77734375 C9.09876953 8.93041016 9.05300781 10.08347656 9.00585938 11.27148438 C8.94205078 12.48126953 8.87824219 13.69105469 8.8125 14.9375 C8.76802734 16.14341797 8.72355469 17.34933594 8.67773438 18.59179688 C8.27059468 27.59410799 8.27059468 27.59410799 6 31 C2.24360452 29.53016834 2.24360452 29.53016834 1.17626953 27.20727539 C0.02551502 21.23395981 -0.24088493 15.51254436 -0.125 9.4375 C-0.11597656 8.52419922 -0.10695313 7.61089844 -0.09765625 6.66992188 C-0.07437253 4.44632681 -0.0416771 2.22331323 0 0 Z " fill="#C69932" transform="translate(427,331)"/>
<path d="M0 0 C6.72 0.72 6.72 0.72 8 2 C8.09921828 3.59909915 8.13079864 5.20251451 8.1328125 6.8046875 C8.13474609 8.26841797 8.13474609 8.26841797 8.13671875 9.76171875 C8.13285156 10.78910156 8.12898437 11.81648437 8.125 12.875 C8.12886719 13.89464844 8.13273438 14.91429687 8.13671875 15.96484375 C8.13542969 16.94324219 8.13414062 17.92164063 8.1328125 18.9296875 C8.13168457 19.82929199 8.13055664 20.72889648 8.12939453 21.65576172 C8 24 8 24 7 27 C5.140625 26.828125 5.140625 26.828125 3 26 C-1.26806782 18.35963168 -1.80907291 9.55495129 -1 1 C-0.67 0.67 -0.34 0.34 0 0 Z " fill="#C59833" transform="translate(568,192)"/>
<path d="M0 0 C-0.66 8.25 -1.32 16.5 -2 25 C-3.32 25 -4.64 25 -6 25 C-6.20496094 24.28972656 -6.40992188 23.57945312 -6.62109375 22.84765625 C-6.89050781 21.92855469 -7.15992188 21.00945312 -7.4375 20.0625 C-7.83775391 18.68771484 -7.83775391 18.68771484 -8.24609375 17.28515625 C-8.79026051 15.0597507 -8.79026051 15.0597507 -10 14 C-10.55792952 10.57634157 -10.65907707 7.41138292 -10 4 C-7.11374964 0.41733534 -4.47220689 -1.49073563 0 0 Z " fill="#C79831" transform="translate(656,237)"/>
<path d="M0 0 C1.65 0 3.3 0 5 0 C4.34 7.92 3.68 15.84 3 24 C1.68 24.33 0.36 24.66 -1 25 C-1.20496094 24.36191406 -1.40992188 23.72382813 -1.62109375 23.06640625 C-1.89050781 22.24011719 -2.15992188 21.41382813 -2.4375 20.5625 C-2.70433594 19.73878906 -2.97117187 18.91507812 -3.24609375 18.06640625 C-3.82155494 16.03780412 -3.82155494 16.03780412 -5 15 C-5.07226502 13.14712498 -5.0838122 11.29166122 -5.0625 9.4375 C-5.05347656 8.42558594 -5.04445313 7.41367187 -5.03515625 6.37109375 C-5.02355469 5.58863281 -5.01195312 4.80617188 -5 4 C-4.360625 3.71125 -3.72125 3.4225 -3.0625 3.125 C-0.84793921 2.17176549 -0.84793921 2.17176549 0 0 Z " fill="#C69932" transform="translate(646,374)"/>
<path d="M0 0 C0.12867289 8.06350113 -0.20318916 15.97497656 -1 24 C-2.32 24.33 -3.64 24.66 -5 25 C-5.20496094 24.37351562 -5.40992188 23.74703125 -5.62109375 23.1015625 C-6.02521484 21.87566406 -6.02521484 21.87566406 -6.4375 20.625 C-6.70433594 19.81289063 -6.97117187 19.00078125 -7.24609375 18.1640625 C-7.95179729 15.98968201 -7.95179729 15.98968201 -9 14 C-9.46848922 10.59604037 -9.59087947 7.39208584 -9 4 C-5.88199675 1.08986364 -4.27674069 0 0 0 Z " fill="#C69932" transform="translate(317,374)"/>
<path d="M0 0 C2.05078125 0.03255208 4.1015625 0.06510417 6.15234375 0.09765625 C7.34522904 2.48342683 7.14659048 3.50480945 6.84765625 6.125 C6.75871094 6.91712891 6.66976562 7.70925781 6.578125 8.52539062 C6.47886719 9.35361328 6.37960937 10.18183594 6.27734375 11.03515625 C6.18582031 11.85951172 6.09429688 12.68386719 6 13.53320312 C5.61168891 16.89947743 5.22856936 19.86897941 4.15234375 23.09765625 C2.83234375 23.09765625 1.51234375 23.09765625 0.15234375 23.09765625 C-2.5844457 15.73438939 -3.52047779 8.95155387 -2.84765625 1.09765625 C-1.84765625 0.09765625 -1.84765625 0.09765625 0 0 Z " fill="#C59832" transform="translate(651.84765625,191.90234375)"/>
<path d="M0 0 C-0.13894148 3.10451549 -0.287343 6.20850835 -0.4375 9.3125 C-0.47681641 10.19357422 -0.51613281 11.07464844 -0.55664062 11.98242188 C-0.59853516 12.82998047 -0.64042969 13.67753906 -0.68359375 14.55078125 C-0.73858032 15.72120972 -0.73858032 15.72120972 -0.79467773 16.9152832 C-1 19 -1 19 -2 22 C-3.65 21.67 -5.3 21.34 -7 21 C-7.13277344 20.43410156 -7.26554688 19.86820312 -7.40234375 19.28515625 C-7.57894531 18.55167969 -7.75554688 17.81820313 -7.9375 17.0625 C-8.11152344 16.33160156 -8.28554688 15.60070312 -8.46484375 14.84765625 C-8.83887569 13.00030102 -8.83887569 13.00030102 -10 12 C-10.28865979 4.35051546 -10.28865979 4.35051546 -9 1 C-6.04335481 -0.4783226 -3.25770263 -0.06032783 0 0 Z " fill="#C69832" transform="translate(653,327)"/>
<path d="M0 0 C-0.4859793 7.3620694 -0.97674072 14.69100518 -2 22 C-3.32 22.33 -4.64 22.66 -6 23 C-6.20496094 22.28972656 -6.40992188 21.57945312 -6.62109375 20.84765625 C-6.89050781 19.92855469 -7.15992188 19.00945312 -7.4375 18.0625 C-7.83775391 16.68771484 -7.83775391 16.68771484 -8.24609375 15.28515625 C-8.79026051 13.0597507 -8.79026051 13.0597507 -10 12 C-10.16796875 10.0390625 -10.16796875 10.0390625 -10.1875 7.625 C-10.20167969 6.83351563 -10.21585937 6.04203125 -10.23046875 5.2265625 C-10 3 -10 3 -8 0 C-2.66666667 -1.33333333 -2.66666667 -1.33333333 0 0 Z " fill="#C69833" transform="translate(320,331)"/>
<path d="M0 0 C5.28 0.99 10.56 1.98 16 3 C16.66 5.64 17.32 8.28 18 11 C11.17563606 10.57347725 6.36543368 7.9864434 1.265625 3.4609375 C0 2 0 2 0 0 Z " fill="#C79631" transform="translate(262,158)"/>
<path d="M0 0 C0.99 0 1.98 0 3 0 C3.99 4.62 4.98 9.24 6 14 C2 13 2 13 0.3125 11.3125 C-1.29550248 8.47935278 -1.79286143 6.24517097 -2 3 C-1.34 2.01 -0.68 1.02 0 0 Z " fill="#C79731" transform="translate(516,274)"/>
<path d="M0 0 C3.51081838 1.67680184 6.24815151 3.69596575 9.25 6.1875 C10.69052734 7.38246094 10.69052734 7.38246094 12.16015625 8.6015625 C15.81493812 11.68826961 19.42849792 14.81737207 23 18 C22.67 18.66 22.34 19.32 22 20 C19.44939431 17.99025328 16.91132579 15.96522806 14.375 13.9375 C13.66214844 13.37611328 12.94929687 12.81472656 12.21484375 12.23632812 C7.5718366 8.50914349 3.7423336 4.63364649 0 0 Z " fill="#C59033" transform="translate(525,241)"/>
<path d="M0 0 C2.64 0 5.28 0 8 0 C8.33 1.32 8.66 2.64 9 4 C6.36 4 3.72 4 1 4 C0.67 2.68 0.34 1.36 0 0 Z " fill="#C79631" transform="translate(495,332)"/>
<path d="M0 0 C2.31 0 4.62 0 7 0 C7.33 1.32 7.66 2.64 8 4 C5.36 4 2.72 4 0 4 C0 2.68 0 1.36 0 0 Z " fill="#C79A31" transform="translate(141,332)"/>
<path d="M0 0 C2.31 0 4.62 0 7 0 C7.33 1.32 7.66 2.64 8 4 C5.36 4 2.72 4 0 4 C0 2.68 0 1.36 0 0 Z " fill="#C69533" transform="translate(584,193)"/>
<path d="M0 0 C2.64 0 5.28 0 8 0 C8 1.32 8 2.64 8 4 C5.36 4 2.72 4 0 4 C0 2.68 0 1.36 0 0 Z " fill="#C79731" transform="translate(577,328)"/>
<path d="M0 0 C2.64 0 5.28 0 8 0 C8 1.32 8 2.64 8 4 C5.69 4 3.38 4 1 4 C0.67 2.68 0.34 1.36 0 0 Z " fill="#C79731" transform="translate(244,332)"/>
<path d="M0 0 C2.31 0 4.62 0 7 0 C7.33 1.32 7.66 2.64 8 4 C5.36 4 2.72 4 0 4 C0 2.68 0 1.36 0 0 Z " fill="#C79432" transform="translate(469,193)"/>
<path d="M0 0 C2.31 0 4.62 0 7 0 C7 1.32 7 2.64 7 4 C4.36 4 1.72 4 -1 4 C-0.67 2.68 -0.34 1.36 0 0 Z " fill="#C79B31" transform="translate(216,193)"/>
<path d="M0 0 C2.31 0 4.62 0 7 0 C7 1.32 7 2.64 7 4 C4.36 4 1.72 4 -1 4 C-0.67 2.68 -0.34 1.36 0 0 Z " fill="#C79C30" transform="translate(137,193)"/>
<path d="M0 0 C2.31 0 4.62 0 7 0 C7 1.32 7 2.64 7 4 C4.69 4 2.38 4 0 4 C0 2.68 0 1.36 0 0 Z " fill="#C59832" transform="translate(389,193)"/>
<path d="M0 0 C1.98 0 3.96 0 6 0 C6 1.32 6 2.64 6 4 C4.02 4 2.04 4 0 4 C0 2.68 0 1.36 0 0 Z " fill="#C89C31" transform="translate(441,332)"/>
<path d="M0 0 C4.83256305 0.41421969 6.82679218 2.46413986 10 6 C9.67 6.66 9.34 7.32 9 8 C7.49712782 6.85793642 5.99776716 5.71125043 4.5 4.5625 C3.6646875 3.92441406 2.829375 3.28632813 1.96875 2.62890625 C1.3190625 2.09136719 0.669375 1.55382812 0 1 C0 0.67 0 0.34 0 0 Z " fill="#CC9A2F" transform="translate(538,253)"/>
</svg>
